<?xml version="1.0" standalone="no"?>
<!DOCTYPE svg PUBLIC "-//W3C//DTD SVG 20010904//EN"
 "http://www.w3.org/TR/2001/REC-SVG-20010904/DTD/svg10.dtd">
<svg version="1.0" xmlns="http://www.w3.org/2000/svg"
 width="1041.000000pt" height="1004.000000pt" viewBox="0 0 1041.000000 1004.000000"
 preserveAspectRatio="xMidYMid meet">

<g transform="translate(0.000000,1004.000000) scale(0.100000,-0.100000)"
fill="#000000" stroke="none">
<path d="M5887 10023 c-4 -3 -7 -131 -7 -284 0 -278 0 -278 -22 -291 -18 -10
-261 -14 -1187 -16 l-1163 -3 4 -594 c2 -326 7 -597 12 -602 4 -4 536 -10
1182 -12 l1174 -3 -2 -172 -3 -171 -990 4 c-544 2 -994 7 -998 11 -5 4 -21 44
-37 89 -15 46 -31 85 -34 89 -10 9 -202 -42 -459 -122 -156 -48 -240 -70 -242
-62 -2 6 -6 432 -9 946 -4 514 -9 970 -13 1013 l-6 77 -863 0 -864 0 -1 -157
c-2 -611 -20 -1975 -27 -2008 l-8 -40 -72 3 c-39 1 -212 22 -383 47 -172 25
-316 45 -320 45 -14 0 -28 -69 -49 -244 -148 -1204 -223 -1774 -350 -2676
-158 -1119 -156 -1104 -118 -1113 13 -3 192 -48 398 -100 206 -52 424 -105
483 -118 97 -20 109 -21 123 -7 18 18 31 100 150 928 92 645 109 754 127 815
l12 40 7 -60 c4 -33 10 -1232 14 -2663 l7 -2604 863 4 c474 1 866 7 871 11 4
5 13 1501 19 3325 6 1824 12 3319 13 3322 4 9 181 -522 217 -650 36 -128 45
-209 60 -531 l6 -126 1321 -6 c726 -4 2301 -7 3499 -7 l2178 0 0 580 0 580
-332 0 c-183 0 -741 3 -1240 7 l-908 6 0 172 0 172 707 6 c388 4 850 7 1026 7
l320 0 -5 485 c-3 267 -8 488 -11 492 -3 3 -464 8 -1024 12 l-1018 6 -3 173
-2 172 1140 0 1140 0 0 605 0 604 -1120 3 c-1059 3 -1120 4 -1137 21 -16 16
-18 45 -21 291 l-4 273 -540 6 c-697 9 -1473 9 -1481 0z m-7 -3323 c0 -154 -2
-182 -16 -187 -8 -3 -346 -2 -751 3 l-736 9 -29 85 c-39 114 -70 241 -63 249
12 12 276 17 933 19 l662 2 0 -180z"/>
<path d="M3550 2505 l0 -2495 965 0 965 0 2 808 3 807 1228 3 1229 2 -4 -139
c-5 -225 11 -219 -563 -202 -387 12 -657 24 -779 36 l-59 6 7 -183 c26 -727
45 -1034 65 -1067 34 -55 1891 -87 2361 -41 324 32 593 131 730 269 126 128
211 368 240 686 21 232 30 886 32 2418 l3 1587 -3212 0 -3213 0 0 -2495z
m4385 1328 c-4 -98 -8 -179 -9 -180 -6 -7 -2376 -2 -2406 5 l-35 8 -3 172 -2
172 1231 0 1231 0 -7 -177z m5 -1188 l0 -175 -1230 0 -1230 0 0 168 c0 93 3
172 7 175 3 4 557 7 1230 7 l1223 0 0 -175z"/>
</g>
</svg>
