<svg width="500" height="482" viewBox="0 0 500 482" fill="none" xmlns="http://www.w3.org/2000/svg">
<path d="M170.984 482V241H479.275V388.71C479.275 410.823 478.411 428.099 476.684 440.538C474.957 453.322 471.157 462.651 465.285 468.525C459.413 474.399 450.086 478.027 437.306 479.409C424.87 481.136 407.772 482 386.01 482C379.447 482 371.157 481.827 361.14 481.482C351.468 481.136 336.442 480.445 316.062 479.409L313.472 417.215C326.943 417.906 338.342 418.597 347.668 419.288C356.995 419.634 364.594 419.806 370.466 419.806C373.921 419.806 376.339 419.634 377.72 419.288C379.102 418.943 379.965 418.079 380.311 416.697C380.656 415.315 380.829 412.896 380.829 409.441V404.258H264.249V362.796H380.829V347.247H264.249V305.785H380.829V290.237H264.249V482H170.984ZM51.8135 313.559L0 300.602C4.83592 268.469 9.49914 236.163 13.9896 203.684C18.4801 171.205 22.4525 138.726 25.9067 106.247L77.7202 114.022C74.266 147.537 70.2936 181.052 65.8031 214.568C61.658 247.738 56.9948 280.735 51.8135 313.559ZM64.7668 482V5.18279H150.259V482H64.7668ZM163.212 202.129C158.722 187.272 153.713 171.896 148.187 156.002C143.005 139.763 137.651 124.042 132.124 108.839L183.938 93.2903C189.81 108.148 195.682 123.696 201.554 139.935C207.427 156.175 212.781 171.723 217.617 186.581L163.212 202.129ZM163.212 225.452V168.441H282.383V152.892H173.575V103.656H282.383V88.1075H168.394V28.5054H282.383V0H380.829V28.5054H489.637V88.1075H380.829V103.656H479.275V152.892H380.829V168.441H500V225.452H163.212Z" fill="black"/>
</svg>
