<?xml version="1.0" standalone="no"?>
<!DOCTYPE svg PUBLIC "-//W3C//DTD SVG 20010904//EN"
 "http://www.w3.org/TR/2001/REC-SVG-20010904/DTD/svg10.dtd">
<svg version="1.0" xmlns="http://www.w3.org/2000/svg"
 width="2068.000000pt" height="482.000000pt" viewBox="0 0 2068.000000 482.000000"
 preserveAspectRatio="xMidYMid meet">

<g transform="translate(0.000000,482.000000) scale(0.100000,-0.100000)"
fill="#000000" stroke="none">
<path d="M5830 4605 l0 -165 -255 0 -255 0 2 -337 3 -338 253 -3 253 -2 -3
-118 -3 -117 -312 -3 -313 -2 0 -360 0 -360 94 0 c53 0 98 -4 101 -10 5 -8
125 -541 125 -555 0 -2 -66 -6 -147 -7 l-148 -3 -3 -362 -2 -363 305 0 305 0
0 -130 0 -130 -265 0 -265 0 0 -340 0 -340 265 0 265 0 0 -280 0 -280 455 0
455 0 0 280 0 280 230 0 230 0 0 340 0 340 -230 0 -230 0 0 130 0 130 285 0
285 0 0 -720 0 -720 425 0 425 0 0 310 c0 171 4 310 9 310 4 0 27 -44 51 -97
89 -205 183 -420 206 -471 27 -62 21 -62 138 21 104 74 208 159 323 264 l102
94 73 -61 c111 -92 241 -182 360 -250 116 -66 278 -140 307 -140 14 0 39 70
141 395 68 217 122 397 119 399 -2 2 -41 22 -87 45 -45 23 -112 60 -150 82
-70 44 -243 171 -261 193 -9 10 1 40 40 122 118 253 212 523 273 784 65 282
67 301 64 670 l-3 335 -850 5 -850 5 0 420 0 420 424 3 424 2 -6 -63 c-10
-104 2 -97 -170 -97 -83 0 -213 5 -290 11 -76 6 -140 9 -142 7 -3 -3 12 -362
21 -494 l6 -81 271 -6 c150 -4 387 -10 527 -13 224 -6 265 -5 335 11 69 15 85
23 121 59 90 90 128 276 159 766 7 124 15 308 17 410 l3 185 -1277 3 -1278 2
-2 -547 -3 -548 -260 -3 c-143 -1 -270 0 -282 3 -22 5 -23 9 -23 120 l0 115
228 2 227 3 3 338 2 337 -230 0 -230 0 0 165 0 165 -455 0 -455 0 0 -165z
m703 -1811 c5 -6 -116 -370 -166 -499 l-23 -60 -70 0 -69 0 -17 85 c-10 47
-36 168 -58 270 -22 102 -40 191 -40 198 0 9 55 12 218 12 120 0 221 -3 225
-6z m772 -279 l0 -280 -129 -3 -128 -3 5 23 c6 28 177 530 184 541 3 4 19 7
36 5 l32 -3 0 -280z m1273 -133 c-1 -5 -46 -44 -98 -88 -225 -188 -308 -253
-314 -247 -3 3 -6 82 -6 175 l0 168 211 0 c116 0 209 -4 207 -8z m478 -29
c-35 -191 -117 -483 -137 -483 -23 0 -198 397 -215 484 l-6 36 182 0 182 0 -6
-37z m-830 -813 c27 -63 86 -182 131 -263 46 -82 83 -153 83 -157 0 -16 -249
-210 -270 -210 -11 0 -15 732 -3 743 8 9 3 18 59 -113z"/>
<path d="M2904 4741 c-2 -2 -4 -64 -4 -137 l0 -132 -25 -6 c-14 -4 -264 -6
-557 -6 l-533 1 2 -278 c2 -153 3 -281 3 -285 0 -5 250 -8 555 -8 l555 0 0
-80 0 -80 -467 2 -468 3 -13 40 c-7 22 -16 43 -20 47 -4 4 -79 -15 -167 -42
-88 -28 -161 -50 -162 -50 -2 0 -3 216 -3 480 0 313 -3 480 -10 480 -5 0 -191
0 -412 0 l-403 0 -3 -515 c-2 -414 -5 -517 -15 -521 -7 -2 -89 7 -181 21 -91
14 -173 25 -180 25 -9 0 -16 -34 -25 -112 -13 -120 -67 -546 -102 -813 -11
-88 -47 -340 -78 -560 -32 -220 -56 -403 -52 -407 6 -7 454 -118 477 -118 7 0
16 10 19 23 5 24 61 404 96 660 12 86 26 157 31 157 4 0 8 -563 8 -1250 l0
-1250 413 2 412 3 5 1565 5 1565 60 -180 c58 -175 60 -184 65 -310 l5 -130
1648 -3 1647 -2 0 275 0 275 -582 2 -583 3 0 80 0 80 483 3 482 2 -2 233 -3
232 -482 3 -483 2 0 80 0 80 535 0 535 0 0 285 0 285 -519 0 c-286 0 -526 3
-535 6 -14 5 -16 27 -16 140 l0 134 -476 2 c-262 2 -478 1 -480 -1z m-4 -1566
l0 -85 -351 2 -350 3 -25 73 c-13 40 -22 78 -19 83 4 5 158 9 376 9 l369 0 0
-85z"/>
<path d="M15175 4389 c-104 -33 -234 -73 -287 -90 -75 -23 -98 -34 -98 -47 0
-10 4 -22 9 -27 23 -24 151 -280 147 -292 -4 -10 -32 -13 -113 -13 l-108 0
-120 236 c-65 129 -125 239 -131 245 -13 11 -586 -161 -591 -178 -2 -5 31 -71
72 -146 41 -76 75 -142 75 -147 0 -6 -85 -11 -210 -12 l-210 -3 0 -485 0 -485
242 -5 243 -5 3 -102 3 -103 740 0 c489 0 738 -3 734 -10 -3 -5 -57 -40 -118
-77 l-112 -68 -170 -5 -170 -5 -3 -102 -3 -103 -734 0 -735 0 0 -285 0 -285
735 0 735 0 0 -143 c0 -98 -4 -147 -12 -155 -14 -14 -326 -15 -533 -3 -66 4
-122 6 -124 4 -4 -3 28 -545 32 -549 8 -7 505 -24 687 -24 385 1 532 33 597
129 49 72 55 117 62 436 l6 300 638 3 637 2 0 285 0 285 -521 0 c-304 0 -519
4 -517 9 2 5 73 59 158 120 85 60 192 140 238 176 l82 65 0 105 0 105 245 0
245 0 0 490 0 490 -210 0 c-115 0 -210 4 -210 8 0 5 35 83 78 173 97 202 95
197 74 203 -22 6 -129 26 -381 71 -168 30 -206 34 -216 23 -6 -7 -24 -44 -40
-83 -16 -38 -65 -142 -109 -230 l-81 -160 -80 -3 c-44 -1 -85 1 -91 5 -6 5
-63 112 -127 238 -65 127 -127 242 -139 257 l-23 27 -190 -60z m1070 -1044 l0
-80 -960 -3 c-528 -1 -970 0 -982 3 -22 5 -23 11 -23 85 l0 80 983 -2 982 -3
0 -80z"/>
<path d="M18837 4374 c-3 -3 -6 -410 -6 -903 -1 -930 -7 -1136 -41 -1303 -33
-158 -101 -324 -189 -458 -48 -75 -201 -231 -344 -353 -112 -96 -117 -101
-100 -118 37 -34 446 -361 459 -366 8 -3 66 46 145 123 359 353 529 665 603
1104 37 225 40 279 40 925 l1 640 138 3 137 3 0 -335 0 -335 -102 -3 c-57 -2
-102 -6 -100 -10 1 -5 2 -132 2 -283 l0 -275 100 0 100 0 0 -420 0 -420 -215
0 -215 0 0 -284 c0 -258 2 -285 17 -288 9 -2 322 -2 695 0 l678 2 0 285 0 285
-145 0 -145 0 2 417 3 418 123 3 122 3 0 284 0 285 -125 0 -125 0 0 335 0 335
135 0 135 0 0 285 0 285 -602 2 -603 3 -5 65 -5 65 -281 3 c-154 1 -283 -1
-287 -4z"/>
<path d="M17120 3945 l0 -295 120 0 120 0 -2 -247 -3 -248 -97 -3 -98 -3 0
-274 c0 -151 -1 -278 -2 -282 -2 -5 43 -9 100 -11 l102 -3 0 -369 c0 -342 -1
-369 -17 -374 -10 -3 -69 -13 -130 -22 -66 -11 -113 -23 -113 -29 0 -6 9 -99
19 -206 11 -107 23 -229 27 -273 l7 -78 56 6 c202 23 699 135 991 223 63 19
123 37 133 40 17 5 18 14 13 82 -8 115 -26 380 -29 431 -1 33 -6 44 -16 42 -8
-2 -82 -21 -165 -42 -83 -22 -154 -36 -158 -32 -5 5 -7 141 -6 303 l3 294 93
3 92 3 0 284 0 284 -92 3 -93 3 0 245 0 245 127 3 128 3 2 -753 3 -753 245 0
245 0 3 918 2 917 -245 0 -245 0 0 130 0 130 -560 0 -560 0 0 -295z"/>
<path d="M10100 3865 l0 -305 585 0 585 0 5 -22 c3 -13 4 -421 3 -908 l-3
-885 -647 -3 -648 -2 0 -305 0 -305 1654 0 c1568 0 1655 1 1659 18 2 9 4 145
3 302 l-1 285 -639 3 c-497 2 -642 5 -648 15 -9 14 -11 1767 -2 1791 6 14 67
16 590 16 l584 0 0 305 0 305 -1540 0 -1540 0 0 -305z"/>
<path d="M1810 1205 l0 -1175 455 0 455 0 0 380 0 380 575 0 575 0 0 -64 c0
-103 7 -100 -255 -92 -121 3 -261 9 -311 13 l-92 6 5 -139 c8 -262 20 -445 29
-454 15 -15 636 -33 899 -27 264 7 349 21 472 79 94 44 135 102 174 244 32
120 38 286 38 1197 l1 827 -1510 0 -1510 0 0 -1175z m2058 623 l-3 -83 -540
-3 c-297 -1 -555 0 -572 3 l-33 6 0 79 0 80 575 0 576 0 -3 -82z m2 -558 l0
-80 -575 0 -575 0 0 80 0 80 575 0 575 0 0 -80z"/>
<path d="M10325 894 c-78 -10 -154 -38 -200 -72 -113 -85 -153 -269 -93 -429
26 -71 114 -153 191 -177 108 -34 287 -19 351 29 18 14 18 16 -4 72 -13 32
-25 60 -26 62 -2 2 -23 -6 -47 -18 -58 -28 -153 -29 -207 -1 -59 30 -93 88
-98 165 -7 102 25 168 99 205 51 26 139 26 198 0 24 -11 47 -20 51 -20 4 0 17
26 29 58 l21 57 -21 18 c-38 31 -173 59 -244 51z"/>
<path d="M15070 890 c-69 -10 -98 -21 -138 -55 -46 -39 -62 -75 -62 -142 0
-106 60 -168 212 -219 117 -39 148 -79 92 -123 -42 -33 -122 -25 -222 22 -49
22 -54 20 -71 -42 -7 -23 -15 -49 -18 -57 -8 -21 88 -61 172 -73 78 -11 180
-2 235 21 47 20 97 79 106 123 10 57 -1 129 -25 164 -32 44 -84 75 -188 110
-113 39 -133 64 -94 112 17 22 27 24 93 23 40 -1 93 -9 117 -18 24 -9 47 -16
51 -16 9 0 30 79 30 113 0 22 -7 27 -62 40 -81 20 -159 26 -228 17z"/>
<path d="M15979 896 c-2 -2 -2 -29 -1 -60 l4 -56 89 0 89 0 0 60 0 60 -88 0
c-49 0 -91 -2 -93 -4z"/>
<path d="M18901 889 c-126 -16 -231 -95 -268 -202 -24 -71 -24 -215 0 -284 52
-148 219 -230 414 -202 72 10 143 42 143 64 0 16 -29 96 -40 108 -4 4 -26 -1
-51 -12 -52 -24 -144 -27 -192 -7 -36 15 -84 66 -99 105 -13 35 -12 140 2 176
15 40 58 84 99 101 52 22 138 17 193 -10 l47 -23 25 61 25 61 -21 18 c-44 37
-173 59 -277 46z"/>
<path d="M19300 550 l0 -350 90 0 90 0 0 350 0 350 -90 0 -90 0 0 -350z"/>
<path d="M20160 550 l0 -351 78 3 c76 3 77 3 80 31 4 33 12 34 41 3 47 -50
166 -53 217 -5 49 46 67 105 68 214 0 174 -51 245 -176 245 -40 0 -62 -6 -90
-25 -20 -14 -39 -25 -42 -25 -4 0 -6 59 -6 130 l0 130 -85 0 -85 0 0 -350z
m289 5 c63 -32 69 -157 11 -215 -27 -27 -63 -25 -96 3 -54 47 -41 193 19 217
31 12 34 12 66 -5z"/>
<path d="M13224 841 c-2 -2 -4 -42 -4 -88 0 -91 4 -87 -72 -86 -27 1 -28 0
-28 -58 l0 -59 50 0 50 0 0 -127 c0 -109 3 -133 20 -160 33 -55 81 -69 220
-65 77 3 84 9 75 71 l-7 51 -59 0 c-75 0 -81 10 -77 137 l3 96 73 -2 73 -2 -3
58 -3 58 -70 0 -70 0 -3 88 c-2 59 -7 88 -15 89 -28 3 -149 3 -153 -1z"/>
<path d="M10835 689 c-62 -8 -100 -27 -142 -71 -37 -39 -48 -64 -58 -135 -15
-114 33 -221 119 -263 63 -30 191 -32 256 -3 53 23 103 76 121 130 17 48 16
146 0 196 -16 47 -63 102 -105 124 -39 20 -127 30 -191 22z m113 -143 c28 -27
39 -104 23 -163 -9 -32 -20 -47 -42 -59 -69 -35 -129 16 -129 112 0 73 17 114
54 130 37 15 63 10 94 -20z"/>
<path d="M16455 689 c-100 -8 -158 -45 -199 -126 -41 -82 -25 -219 34 -287 50
-56 110 -78 212 -78 80 0 151 13 171 31 4 4 0 29 -9 55 -14 41 -19 47 -38 41
-11 -3 -53 -9 -93 -12 -70 -5 -73 -5 -102 25 -17 17 -31 35 -31 41 0 7 52 11
160 11 160 0 160 0 166 24 6 25 -8 113 -25 157 -16 42 -76 94 -128 110 -33 10
-70 12 -118 8z m93 -135 c12 -14 22 -34 22 -45 0 -17 -7 -19 -86 -19 l-86 0 7
27 c18 74 93 93 143 37z"/>
<path d="M17570 689 c-89 -7 -115 -17 -165 -61 -54 -46 -75 -98 -75 -183 0
-87 22 -138 79 -186 53 -46 107 -62 208 -61 69 1 153 20 153 35 0 9 -31 107
-34 107 -2 0 -23 -7 -46 -15 -55 -19 -84 -19 -127 2 -85 40 -86 199 -1 234 40
16 100 15 138 -5 22 -10 31 -11 38 -3 15 21 34 99 25 107 -20 20 -121 35 -193
29z"/>
<path d="M11435 678 c-11 -6 -32 -22 -47 -36 l-28 -26 0 32 0 32 -80 0 -80 0
0 -240 0 -240 85 0 85 0 0 159 c0 145 2 161 21 185 21 27 43 32 69 16 12 -7
16 -43 20 -182 l5 -173 80 0 80 0 5 161 c4 141 7 165 24 183 23 26 48 27 69 3
14 -16 17 -44 17 -186 l0 -167 81 3 80 3 0 191 c1 214 -7 251 -60 278 -17 9
-55 16 -89 16 -49 0 -66 -5 -105 -31 l-47 -31 -29 31 c-26 27 -35 31 -83 31
-29 0 -62 -6 -73 -12z"/>
<path d="M12245 674 c-16 -8 -37 -22 -46 -30 -22 -20 -29 -18 -29 11 0 25 -1
25 -80 25 l-80 0 0 -340 0 -340 85 0 85 0 0 125 c0 69 2 125 5 125 3 0 18 -9
34 -21 34 -25 95 -40 135 -32 104 20 160 107 160 248 -1 117 -39 197 -111 234
-32 16 -123 13 -158 -5z m71 -127 c69 -60 33 -227 -50 -227 -83 0 -115 165
-44 225 37 31 59 32 94 2z"/>
<path d="M13725 671 c-53 -24 -112 -90 -122 -138 -31 -149 22 -273 136 -320
43 -18 181 -20 252 -3 48 12 50 14 44 39 -14 63 -27 83 -49 76 -12 -4 -53 -9
-93 -12 -70 -5 -73 -5 -102 25 -17 17 -31 35 -31 41 0 7 52 11 159 11 l159 0
7 30 c8 38 -11 136 -35 175 -22 36 -63 67 -109 83 -53 18 -169 15 -216 -7z
m183 -117 c12 -14 22 -34 22 -45 0 -17 -7 -19 -86 -19 l-86 0 7 27 c18 74 93
93 143 37z"/>
<path d="M14415 666 c-27 -13 -59 -33 -69 -45 -28 -31 -36 -26 -36 19 l0 40
-80 0 -80 0 0 -240 0 -240 85 0 85 0 0 113 c0 97 3 119 23 157 26 52 75 81
148 88 l49 5 0 63 0 64 -37 0 c-21 0 -60 -11 -88 -24z"/>
<path d="M15580 677 c-50 -16 -126 -93 -139 -142 -17 -61 -13 -154 8 -201 24
-53 90 -108 149 -125 80 -22 248 -9 267 21 11 18 -25 112 -40 106 -90 -34
-148 -30 -191 15 -26 27 -29 37 -29 95 0 62 2 67 34 96 35 32 44 32 180 16 20
-3 25 3 38 46 8 27 11 52 6 56 -33 29 -210 40 -283 17z"/>
<path d="M15984 681 c-2 -2 -4 -112 -4 -243 l0 -239 88 3 87 3 0 240 0 240
-83 0 c-46 0 -85 -2 -88 -4z"/>
<path d="M17025 674 c-16 -8 -40 -25 -52 -36 l-23 -21 0 31 0 32 -80 0 -80 0
0 -240 0 -240 85 0 85 0 0 143 c0 93 5 150 13 166 18 36 61 64 86 56 38 -12
45 -42 48 -200 1 -82 3 -153 3 -157 0 -5 36 -8 79 -8 l80 0 3 33 c2 17 1 104
-2 192 -6 182 -18 222 -75 249 -42 20 -131 20 -170 0z"/>
<path d="M17940 663 c-41 -22 -59 -40 -83 -82 -28 -49 -31 -64 -31 -135 0 -63
5 -90 22 -122 24 -47 71 -90 122 -112 61 -25 276 -13 294 17 3 4 -2 31 -11 58
l-16 51 -40 -14 c-22 -8 -64 -14 -94 -14 -47 0 -59 4 -84 29 -16 16 -29 34
-29 40 0 7 51 11 154 11 187 0 184 -1 168 102 -21 137 -94 197 -238 198 -70 0
-89 -4 -134 -27z m198 -109 c12 -14 22 -34 22 -45 0 -17 -7 -19 -86 -19 l-86
0 7 27 c18 74 93 93 143 37z"/>
<path d="M12572 493 c4 -154 8 -195 23 -226 23 -49 65 -70 138 -70 49 0 65 5
103 31 24 18 46 32 49 32 2 0 5 -12 7 -27 3 -28 4 -28 78 -28 l75 0 3 238 2
237 -85 0 -85 0 0 -130 c0 -144 -11 -187 -54 -215 -31 -21 -64 -12 -77 22 -5
13 -9 92 -9 174 l0 149 -86 0 -87 0 5 -187z"/>
<path d="M19590 495 c0 -208 9 -248 61 -279 39 -23 133 -25 174 -4 17 9 39 26
50 38 l20 22 5 -33 5 -34 78 -3 77 -3 0 241 0 240 -85 0 -85 0 0 -138 c0 -115
-3 -143 -19 -172 -21 -40 -63 -60 -89 -44 -15 10 -17 34 -20 183 l-2 171 -85
0 -85 0 0 -185z"/>
</g>
</svg>
