<svg width="1000" height="230" viewBox="0 0 1000 230" fill="none" xmlns="http://www.w3.org/2000/svg">
<path d="M970.985 220.657V187.42H979.943V200.078H980.073C980.398 199.235 980.874 198.461 981.501 197.758C982.129 197.044 982.908 196.476 983.838 196.054C984.769 195.621 985.851 195.405 987.084 195.405C988.729 195.405 990.292 195.843 991.774 196.719C993.267 197.595 994.479 198.975 995.409 200.857C996.351 202.74 996.821 205.185 996.821 208.193C996.821 211.071 996.372 213.456 995.474 215.35C994.587 217.243 993.397 218.655 991.904 219.585C990.422 220.516 988.794 220.981 987.019 220.981C985.851 220.981 984.807 220.792 983.887 220.413C982.978 220.024 982.199 219.499 981.55 218.839C980.912 218.168 980.419 217.411 980.073 216.567H979.878V220.657H970.985ZM979.749 208.193C979.749 209.405 979.906 210.454 980.219 211.341C980.544 212.218 980.998 212.899 981.583 213.386C982.178 213.862 982.886 214.1 983.709 214.1C984.531 214.1 985.229 213.868 985.802 213.402C986.386 212.926 986.83 212.25 987.133 211.374C987.447 210.487 987.603 209.426 987.603 208.193C987.603 206.959 987.447 205.905 987.133 205.028C986.83 204.141 986.386 203.465 985.802 203C985.229 202.524 984.531 202.286 983.709 202.286C982.886 202.286 982.178 202.524 981.583 203C980.998 203.465 980.544 204.141 980.219 205.028C979.906 205.905 979.749 206.959 979.749 208.193Z" fill="white"/>
<path d="M958.514 209.751V195.729H967.473V220.657H958.969V215.918H958.709C958.168 217.508 957.221 218.752 955.869 219.65C954.517 220.538 952.91 220.981 951.049 220.981C949.307 220.981 947.782 220.581 946.473 219.78C945.174 218.98 944.163 217.876 943.438 216.47C942.724 215.063 942.361 213.451 942.35 211.633V195.729H951.309V209.751C951.32 210.984 951.633 211.953 952.25 212.656C952.878 213.359 953.754 213.711 954.879 213.711C955.626 213.711 956.269 213.554 956.81 213.24C957.362 212.915 957.784 212.461 958.076 211.877C958.379 211.282 958.525 210.573 958.514 209.751Z" fill="white"/>
<path d="M938.7 187.42V220.657H929.742V187.42H938.7Z" fill="white"/>
<path d="M926.432 199.884H917.279C917.214 199.126 917.041 198.439 916.76 197.823C916.489 197.206 916.111 196.676 915.624 196.232C915.148 195.778 914.569 195.432 913.887 195.194C913.206 194.945 912.432 194.82 911.567 194.82C910.052 194.82 908.77 195.188 907.72 195.924C906.682 196.66 905.892 197.714 905.351 199.088C904.821 200.463 904.556 202.112 904.556 204.038C904.556 206.072 904.826 207.776 905.367 209.15C905.919 210.514 906.714 211.541 907.753 212.234C908.792 212.915 910.041 213.256 911.502 213.256C912.335 213.256 913.081 213.153 913.741 212.948C914.401 212.732 914.975 212.423 915.462 212.023C915.948 211.623 916.343 211.141 916.646 210.578C916.96 210.005 917.171 209.361 917.279 208.647L926.432 208.712C926.324 210.119 925.929 211.552 925.248 213.013C924.566 214.463 923.598 215.804 922.343 217.038C921.098 218.26 919.557 219.245 917.717 219.991C915.878 220.738 913.741 221.111 911.307 221.111C908.256 221.111 905.519 220.456 903.095 219.147C900.683 217.838 898.773 215.912 897.366 213.37C895.971 210.827 895.273 207.717 895.273 204.038C895.273 200.338 895.987 197.222 897.415 194.69C898.843 192.148 900.769 190.228 903.193 188.929C905.616 187.62 908.321 186.966 911.307 186.966C913.406 186.966 915.337 187.252 917.101 187.826C918.864 188.399 920.411 189.238 921.742 190.341C923.073 191.434 924.144 192.781 924.955 194.382C925.767 195.983 926.259 197.817 926.432 199.884Z" fill="white"/>
<path d="M872.397 221.111C869.735 221.111 867.441 220.602 865.516 219.585C863.601 218.558 862.124 217.086 861.085 215.171C860.057 213.245 859.543 210.941 859.543 208.258C859.543 205.683 860.063 203.432 861.101 201.507C862.14 199.581 863.606 198.082 865.499 197.011C867.393 195.94 869.627 195.405 872.202 195.405C874.084 195.405 875.788 195.697 877.314 196.281C878.84 196.865 880.143 197.714 881.225 198.829C882.307 199.932 883.14 201.274 883.724 202.854C884.309 204.433 884.601 206.213 884.601 208.193V210.27H862.335V205.337H876.357C876.346 204.622 876.162 203.995 875.805 203.454C875.459 202.902 874.988 202.475 874.393 202.172C873.809 201.858 873.143 201.701 872.397 201.701C871.672 201.701 871.006 201.858 870.401 202.172C869.795 202.475 869.308 202.897 868.94 203.438C868.583 203.979 868.394 204.612 868.372 205.337V210.66C868.372 211.46 868.54 212.174 868.875 212.802C869.21 213.429 869.692 213.922 870.319 214.279C870.947 214.636 871.704 214.814 872.591 214.814C873.208 214.814 873.771 214.728 874.279 214.555C874.799 214.381 875.242 214.133 875.61 213.808C875.978 213.473 876.248 213.072 876.421 212.607H884.601C884.319 214.338 883.654 215.842 882.605 217.119C881.555 218.385 880.165 219.369 878.434 220.072C876.714 220.765 874.701 221.111 872.397 221.111Z" fill="white"/>
<path d="M845.661 221.111C842.956 221.111 840.641 220.575 838.715 219.504C836.789 218.422 835.312 216.919 834.284 214.993C833.257 213.056 832.743 210.811 832.743 208.258C832.743 205.704 833.257 203.465 834.284 201.539C835.312 199.602 836.789 198.099 838.715 197.027C840.641 195.945 842.956 195.405 845.661 195.405C848.106 195.405 850.221 195.848 852.006 196.735C853.802 197.612 855.193 198.856 856.177 200.468C857.162 202.069 857.659 203.952 857.67 206.116H849.361C849.242 204.806 848.863 203.811 848.225 203.129C847.597 202.437 846.786 202.091 845.791 202.091C845.012 202.091 844.33 202.318 843.746 202.772C843.162 203.216 842.707 203.892 842.383 204.801C842.058 205.699 841.896 206.83 841.896 208.193C841.896 209.556 842.058 210.692 842.383 211.601C842.707 212.499 843.162 213.175 843.746 213.629C844.33 214.073 845.012 214.295 845.791 214.295C846.451 214.295 847.035 214.143 847.543 213.84C848.052 213.527 848.463 213.072 848.777 212.477C849.101 211.871 849.296 211.136 849.361 210.27H857.67C857.638 212.466 857.135 214.381 856.161 216.015C855.187 217.638 853.808 218.893 852.023 219.78C850.248 220.667 848.128 221.111 845.661 221.111Z" fill="white"/>
<path d="M813.979 206.635V220.657H805.021V195.729H813.525V200.468H813.784C814.325 198.888 815.278 197.65 816.641 196.752C818.015 195.854 819.616 195.405 821.444 195.405C823.208 195.405 824.739 195.81 826.037 196.622C827.346 197.422 828.358 198.526 829.072 199.932C829.797 201.339 830.154 202.946 830.143 204.752V220.657H821.185V206.635C821.196 205.401 820.882 204.433 820.244 203.73C819.616 203.027 818.74 202.675 817.614 202.675C816.879 202.675 816.235 202.837 815.683 203.162C815.142 203.476 814.726 203.93 814.434 204.525C814.141 205.109 813.99 205.813 813.979 206.635Z" fill="white"/>
<path d="M790.075 221.111C787.414 221.111 785.12 220.602 783.194 219.585C781.279 218.558 779.802 217.086 778.764 215.171C777.736 213.245 777.222 210.941 777.222 208.258C777.222 205.683 777.741 203.432 778.78 201.507C779.819 199.581 781.285 198.082 783.178 197.011C785.071 195.94 787.306 195.405 789.881 195.405C791.763 195.405 793.467 195.697 794.993 196.281C796.518 196.865 797.822 197.714 798.904 198.829C799.986 199.932 800.819 201.274 801.403 202.854C801.987 204.433 802.279 206.213 802.279 208.193V210.27H780.013V205.337H794.035C794.024 204.622 793.84 203.995 793.483 203.454C793.137 202.902 792.666 202.475 792.071 202.172C791.487 201.858 790.822 201.701 790.075 201.701C789.35 201.701 788.685 201.858 788.079 202.172C787.473 202.475 786.986 202.897 786.619 203.438C786.262 203.979 786.072 204.612 786.051 205.337V210.66C786.051 211.46 786.218 212.174 786.554 212.802C786.889 213.429 787.37 213.922 787.998 214.279C788.625 214.636 789.383 214.814 790.27 214.814C790.887 214.814 791.449 214.728 791.958 214.555C792.477 214.381 792.921 214.133 793.289 213.808C793.656 213.473 793.927 213.072 794.1 212.607H802.279C801.998 214.338 801.333 215.842 800.283 217.119C799.234 218.385 797.843 219.369 796.112 220.072C794.392 220.765 792.38 221.111 790.075 221.111Z" fill="white"/>
<path d="M765.522 220.657V195.729H774.481V220.657H765.522ZM770.001 193.132C768.79 193.132 767.751 192.732 766.885 191.932C766.02 191.131 765.587 190.168 765.587 189.043C765.587 187.918 766.02 186.955 766.885 186.154C767.751 185.353 768.79 184.953 770.001 184.953C771.224 184.953 772.263 185.353 773.117 186.154C773.983 186.955 774.416 187.918 774.416 189.043C774.416 190.168 773.983 191.131 773.117 191.932C772.263 192.732 771.224 193.132 770.001 193.132Z" fill="white"/>
<path d="M750.731 221.111C748.026 221.111 745.711 220.575 743.785 219.504C741.859 218.422 740.382 216.919 739.354 214.993C738.327 213.056 737.813 210.811 737.813 208.258C737.813 205.704 738.327 203.465 739.354 201.539C740.382 199.602 741.859 198.099 743.785 197.027C745.711 195.945 748.026 195.405 750.731 195.405C753.176 195.405 755.291 195.848 757.076 196.735C758.872 197.612 760.262 198.856 761.247 200.468C762.232 202.069 762.729 203.952 762.74 206.116H754.431C754.312 204.806 753.933 203.811 753.295 203.129C752.667 202.437 751.856 202.091 750.861 202.091C750.082 202.091 749.4 202.318 748.816 202.772C748.232 203.216 747.777 203.892 747.453 204.801C747.128 205.699 746.966 206.83 746.966 208.193C746.966 209.556 747.128 210.692 747.453 211.601C747.777 212.499 748.232 213.175 748.816 213.629C749.4 214.073 750.082 214.295 750.861 214.295C751.521 214.295 752.105 214.143 752.613 213.84C753.122 213.527 753.533 213.072 753.847 212.477C754.171 211.871 754.366 211.136 754.431 210.27H762.74C762.708 212.466 762.205 214.381 761.231 216.015C760.257 217.638 758.878 218.893 757.092 219.78C755.318 220.667 753.198 221.111 750.731 221.111Z" fill="white"/>
<path d="M726.985 197.806C726.899 196.724 726.493 195.881 725.768 195.275C725.054 194.669 723.967 194.366 722.506 194.366C721.576 194.366 720.813 194.48 720.218 194.707C719.633 194.923 719.201 195.221 718.919 195.599C718.638 195.978 718.492 196.411 718.481 196.898C718.46 197.298 718.53 197.66 718.692 197.985C718.865 198.299 719.136 198.585 719.504 198.845C719.871 199.094 720.342 199.321 720.916 199.527C721.489 199.732 722.171 199.916 722.96 200.078L725.687 200.663C727.526 201.052 729.1 201.566 730.409 202.204C731.719 202.843 732.79 203.595 733.623 204.46C734.456 205.315 735.067 206.278 735.457 207.349C735.857 208.42 736.062 209.589 736.073 210.854C736.062 213.04 735.516 214.89 734.434 216.405C733.352 217.919 731.805 219.072 729.793 219.861C727.791 220.651 725.384 221.046 722.571 221.046C719.682 221.046 717.161 220.619 715.008 219.764C712.866 218.909 711.2 217.595 710.01 215.82C708.83 214.035 708.235 211.752 708.225 208.972H716.793C716.848 209.989 717.102 210.844 717.556 211.536C718.011 212.228 718.649 212.753 719.471 213.11C720.304 213.467 721.294 213.646 722.441 213.646C723.404 213.646 724.21 213.527 724.859 213.289C725.508 213.051 726.001 212.721 726.336 212.299C726.671 211.877 726.844 211.395 726.855 210.854C726.844 210.346 726.677 209.902 726.352 209.524C726.038 209.134 725.519 208.788 724.794 208.485C724.069 208.171 723.09 207.879 721.857 207.609L718.546 206.895C715.603 206.256 713.283 205.191 711.584 203.697C709.896 202.194 709.058 200.143 709.068 197.547C709.058 195.437 709.62 193.592 710.756 192.013C711.903 190.422 713.488 189.183 715.511 188.296C717.545 187.409 719.877 186.966 722.506 186.966C725.189 186.966 727.51 187.415 729.468 188.313C731.426 189.211 732.936 190.476 733.996 192.11C735.067 193.733 735.608 195.632 735.619 197.806H726.985Z" fill="white"/>
<path d="M682.107 220.657V195.729H690.805V200.468H691.065C691.519 198.715 692.239 197.433 693.223 196.622C694.219 195.81 695.382 195.405 696.713 195.405C697.102 195.405 697.486 195.437 697.865 195.502C698.254 195.556 698.627 195.637 698.985 195.745V203.389C698.541 203.238 697.995 203.124 697.345 203.048C696.696 202.973 696.139 202.935 695.674 202.935C694.798 202.935 694.008 203.135 693.304 203.535C692.612 203.925 692.066 204.476 691.665 205.191C691.265 205.894 691.065 206.721 691.065 207.674V220.657H682.107Z" fill="white"/>
<path d="M667.161 221.111C664.499 221.111 662.206 220.602 660.28 219.585C658.365 218.558 656.888 217.086 655.849 215.171C654.822 213.245 654.308 210.941 654.308 208.258C654.308 205.683 654.827 203.432 655.866 201.507C656.904 199.581 658.37 198.082 660.264 197.011C662.157 195.94 664.391 195.405 666.966 195.405C668.849 195.405 670.553 195.697 672.078 196.281C673.604 196.865 674.908 197.714 675.989 198.829C677.071 199.932 677.904 201.274 678.489 202.854C679.073 204.433 679.365 206.213 679.365 208.193V210.27H657.099V205.337H671.121C671.11 204.622 670.926 203.995 670.569 203.454C670.223 202.902 669.752 202.475 669.157 202.172C668.573 201.858 667.907 201.701 667.161 201.701C666.436 201.701 665.771 201.858 665.165 202.172C664.559 202.475 664.072 202.897 663.704 203.438C663.347 203.979 663.158 204.612 663.136 205.337V210.66C663.136 211.46 663.304 212.174 663.639 212.802C663.975 213.429 664.456 213.922 665.084 214.279C665.711 214.636 666.469 214.814 667.356 214.814C667.972 214.814 668.535 214.728 669.044 214.555C669.563 214.381 670.006 214.133 670.374 213.808C670.742 213.473 671.013 213.072 671.186 212.607H679.365C679.084 214.338 678.418 215.842 677.369 217.119C676.319 218.385 674.929 219.369 673.198 220.072C671.478 220.765 669.465 221.111 667.161 221.111Z" fill="white"/>
<path d="M652.743 195.729V202.221H636.319V195.729H652.743ZM639.5 189.757H648.458V212.64C648.458 212.986 648.518 213.278 648.637 213.516C648.756 213.743 648.94 213.916 649.189 214.035C649.438 214.143 649.757 214.198 650.146 214.198C650.417 214.198 650.73 214.165 651.087 214.1C651.455 214.035 651.726 213.981 651.899 213.938L653.197 220.235C652.797 220.354 652.223 220.5 651.477 220.673C650.741 220.846 649.865 220.96 648.848 221.014C646.792 221.122 645.067 220.911 643.671 220.381C642.275 219.84 641.226 218.99 640.522 217.833C639.819 216.675 639.478 215.225 639.5 213.483V189.757Z" fill="white"/>
<path d="M625.277 209.751V195.729H634.235V220.657H625.731V215.918H625.471C624.93 217.508 623.984 218.752 622.631 219.65C621.279 220.538 619.672 220.981 617.811 220.981C616.069 220.981 614.544 220.581 613.235 219.78C611.937 218.98 610.925 217.876 610.2 216.47C609.486 215.063 609.124 213.451 609.113 211.633V195.729H618.071V209.751C618.082 210.984 618.396 211.953 619.012 212.656C619.64 213.359 620.516 213.711 621.641 213.711C622.388 213.711 623.032 213.554 623.573 213.24C624.124 212.915 624.546 212.461 624.838 211.877C625.141 211.282 625.287 210.573 625.277 209.751Z" fill="white"/>
<path d="M580.438 230.004V195.729H589.331V200.078H589.526C589.85 199.235 590.326 198.461 590.954 197.758C591.581 197.044 592.36 196.476 593.291 196.054C594.221 195.621 595.303 195.405 596.537 195.405C598.181 195.405 599.744 195.843 601.227 196.719C602.72 197.595 603.931 198.975 604.862 200.857C605.803 202.74 606.274 205.185 606.274 208.193C606.274 211.071 605.825 213.456 604.927 215.35C604.04 217.243 602.85 218.655 601.357 219.585C599.874 220.516 598.246 220.981 596.472 220.981C595.303 220.981 594.259 220.792 593.339 220.413C592.431 220.024 591.652 219.499 591.003 218.839C590.364 218.168 589.872 217.411 589.526 216.567H589.396V230.004H580.438ZM589.201 208.193C589.201 209.405 589.358 210.454 589.672 211.341C589.996 212.218 590.451 212.899 591.035 213.386C591.63 213.862 592.339 214.1 593.161 214.1C593.983 214.1 594.681 213.868 595.254 213.402C595.839 212.926 596.282 212.25 596.585 211.374C596.899 210.487 597.056 209.426 597.056 208.193C597.056 206.959 596.899 205.905 596.585 205.028C596.282 204.141 595.839 203.465 595.254 203C594.681 202.524 593.983 202.286 593.161 202.286C592.339 202.286 591.63 202.524 591.035 203C590.451 203.465 589.996 204.141 589.672 205.028C589.358 205.905 589.201 206.959 589.201 208.193Z" fill="white"/>
<path d="M538.374 220.657V195.729H546.877V200.468H547.137C547.656 198.91 548.544 197.677 549.799 196.768C551.054 195.859 552.547 195.405 554.278 195.405C556.03 195.405 557.54 195.87 558.806 196.8C560.071 197.72 560.834 198.942 561.094 200.468H561.354C561.775 198.942 562.673 197.72 564.048 196.8C565.422 195.87 567.034 195.405 568.884 195.405C571.275 195.405 573.211 196.173 574.694 197.709C576.187 199.245 576.933 201.29 576.933 203.844V220.657H567.975V206.116C567.975 205.023 567.699 204.168 567.147 203.551C566.595 202.924 565.854 202.61 564.924 202.61C564.004 202.61 563.274 202.924 562.733 203.551C562.203 204.168 561.938 205.023 561.938 206.116V220.657H553.369V206.116C553.369 205.023 553.093 204.168 552.541 203.551C551.99 202.924 551.248 202.61 550.318 202.61C549.701 202.61 549.171 202.751 548.728 203.032C548.284 203.313 547.938 203.719 547.689 204.249C547.451 204.769 547.332 205.391 547.332 206.116V220.657H538.374Z" fill="white"/>
<path d="M522.734 221.111C520.029 221.111 517.714 220.575 515.788 219.504C513.862 218.422 512.386 216.919 511.358 214.993C510.33 213.056 509.816 210.811 509.816 208.258C509.816 205.704 510.33 203.465 511.358 201.539C512.386 199.602 513.862 198.099 515.788 197.027C517.714 195.945 520.029 195.405 522.734 195.405C525.439 195.405 527.754 195.945 529.68 197.027C531.606 198.099 533.083 199.602 534.111 201.539C535.138 203.465 535.652 205.704 535.652 208.258C535.652 210.811 535.138 213.056 534.111 214.993C533.083 216.919 531.606 218.422 529.68 219.504C527.754 220.575 525.439 221.111 522.734 221.111ZM522.799 214.49C523.556 214.49 524.211 214.235 524.763 213.727C525.315 213.218 525.742 212.493 526.045 211.552C526.348 210.611 526.499 209.491 526.499 208.193C526.499 206.884 526.348 205.764 526.045 204.833C525.742 203.892 525.315 203.167 524.763 202.659C524.211 202.15 523.556 201.896 522.799 201.896C521.998 201.896 521.311 202.15 520.738 202.659C520.165 203.167 519.726 203.892 519.424 204.833C519.121 205.764 518.969 206.884 518.969 208.193C518.969 209.491 519.121 210.611 519.424 211.552C519.726 212.493 520.165 213.218 520.738 213.727C521.311 214.235 521.998 214.49 522.799 214.49Z" fill="white"/>
<path d="M507.415 199.884H498.262C498.197 199.126 498.024 198.439 497.743 197.823C497.472 197.206 497.094 196.676 496.607 196.232C496.131 195.778 495.552 195.432 494.87 195.194C494.189 194.945 493.415 194.82 492.55 194.82C491.035 194.82 489.753 195.188 488.703 195.924C487.665 196.66 486.875 197.714 486.334 199.088C485.804 200.463 485.539 202.112 485.539 204.038C485.539 206.072 485.809 207.776 486.35 209.15C486.902 210.514 487.697 211.541 488.736 212.234C489.775 212.915 491.024 213.256 492.485 213.256C493.318 213.256 494.064 213.153 494.724 212.948C495.384 212.732 495.958 212.423 496.445 212.023C496.932 211.623 497.326 211.141 497.629 210.578C497.943 210.005 498.154 209.361 498.262 208.647L507.415 208.712C507.307 210.119 506.912 211.552 506.231 213.013C505.549 214.463 504.581 215.804 503.326 217.038C502.081 218.26 500.54 219.245 498.7 219.991C496.861 220.738 494.724 221.111 492.29 221.111C489.239 221.111 486.502 220.456 484.078 219.147C481.666 217.838 479.756 215.912 478.349 213.37C476.954 210.827 476.256 207.717 476.256 204.038C476.256 200.338 476.97 197.222 478.398 194.69C479.826 192.148 481.752 190.228 484.176 188.929C486.599 187.62 489.304 186.966 492.29 186.966C494.389 186.966 496.32 187.252 498.084 187.826C499.847 188.399 501.394 189.238 502.725 190.341C504.056 191.434 505.127 192.781 505.938 194.382C506.75 195.983 507.242 197.817 507.415 199.884Z" fill="white"/>
<path d="M928.593 179.717V150.202H950.491V108.31H940.018V78.795H950.491V45.4719H929.545V15.957H999.048V45.4719H984.767V78.795H997.144V108.31H984.767V150.202H1000V179.717H928.593ZM822.911 169.244L820.055 139.729C826.656 138.713 833.702 137.507 841.191 136.111C848.808 134.588 856.171 133.001 863.28 131.35C870.389 129.573 876.609 127.923 881.941 126.4L883.845 154.962C878.767 156.613 872.674 158.39 865.565 160.294C858.456 162.071 851.157 163.785 843.667 165.435C836.177 166.959 829.258 168.228 822.911 169.244ZM833.384 143.537V100.693H822.911V71.1783H833.384V46.424H821.007V15.957H878.132V46.424H864.803V71.1783H874.324V100.693H864.803V143.537H833.384ZM897.174 187.333L872.42 167.339C878.64 162.262 883.845 157.628 888.034 153.439C892.35 149.123 895.778 144.87 898.317 140.681C900.856 136.365 902.823 131.604 904.22 126.4C905.616 121.068 906.505 114.911 906.886 107.929C907.393 100.82 907.647 92.3782 907.647 82.6034V9.29241H937.162V96.8848C937.162 110.722 935.829 122.909 933.163 133.445C930.497 143.855 926.245 153.375 920.405 162.008C914.566 170.513 906.822 178.955 897.174 187.333ZM877.18 122.591V29.2863H902.887V122.591H877.18Z" fill="white"/>
<path d="M712.469 184.477C709.422 184.477 705.36 184.414 700.282 184.287C695.331 184.16 688.603 183.906 680.098 183.525L678.193 154.962C685.683 155.216 691.65 155.47 696.093 155.724C700.663 155.851 703.9 155.914 705.804 155.914C708.089 155.914 709.676 155.851 710.564 155.724C711.453 155.597 711.961 155.216 712.088 154.581C712.342 153.82 712.469 152.677 712.469 151.154V140.681H638.206V111.166H712.469V100.693H748.648V111.166H813.39V140.681H748.648V157.438C748.648 163.658 748.331 168.609 747.696 172.29C747.061 175.972 745.538 178.638 743.126 180.288C740.841 182.065 737.223 183.208 732.272 183.715C727.448 184.223 720.847 184.477 712.469 184.477ZM671.529 49.2802C669.117 43.6946 666.514 38.1725 663.722 32.7138C661.056 27.1282 658.263 21.86 655.343 16.9091L685.81 7.38823C688.73 12.3391 691.523 17.6073 694.189 23.1929C696.981 28.6516 699.584 34.1737 701.996 39.7593L671.529 49.2802ZM666.768 93.0764V65.4658H784.828V93.0764H666.768ZM732.463 128.304L719.133 106.406C727.766 101.582 736.525 96.4404 745.411 90.9818C754.424 85.3962 762.803 80.0645 770.546 74.9867L784.828 93.0764C776.703 99.4237 768.388 105.517 759.883 111.357C751.377 117.069 742.237 122.718 732.463 128.304ZM642.014 82.6034V32.1426H809.582V82.6034H775.307V57.849H676.289V82.6034H642.014ZM717.229 47.376C714.817 41.7904 712.215 36.2683 709.422 30.8097C706.756 25.2241 703.963 19.9558 701.044 15.005L731.51 5.48404C734.43 10.4349 737.223 15.7031 739.889 21.2887C742.682 26.7474 745.284 32.2695 747.696 37.8551L717.229 47.376ZM781.019 45.4719L749.6 39.7593C752.774 34.4276 755.694 29.0324 758.359 23.5738C761.152 17.9882 763.628 12.593 765.786 7.38823L797.205 13.1008C795.047 18.3055 792.571 23.7007 789.778 29.2863C787.113 34.745 784.193 40.1401 781.019 45.4719Z" fill="white"/>
<path d="M464.925 174.004V142.585H530.048V51.1844H470.638V19.7654H626.78V51.1844H567.37V142.585H632.493V174.004H464.925Z" fill="white"/>
<path d="M341.229 226.674V7.31205H464.316L463.828 25.1047C463.341 37.2915 462.691 46.8784 461.878 53.8655C461.228 60.6901 460.091 65.8085 458.466 69.2208C457.004 72.4706 454.972 74.583 452.373 75.5579C449.773 76.3704 446.442 76.7766 442.379 76.7766C438.805 76.7766 432.955 76.6954 424.831 76.5329C416.869 76.2079 406.875 75.8829 394.851 75.5579L393.632 47.5284C399.807 47.8534 405.413 48.1783 410.45 48.5033C415.487 48.6658 418.818 48.747 420.443 48.747C420.931 48.747 421.256 48.747 421.418 48.747C421.743 48.5846 421.987 48.3408 422.149 48.0159C422.312 47.5284 422.393 46.7972 422.393 45.8222C422.556 44.6848 422.718 43.2224 422.881 41.435H382.664V81.6513H464.316V114.556H382.664V226.674H341.229ZM270.546 229.111V202.3H244.954V169.396H270.546V157.209H241.298V121.868H346.104V157.209H314.418V169.396H336.355V202.3H314.418V229.111H270.546ZM258.359 136.492C256.734 127.88 254.947 119.105 252.997 110.168C251.21 101.231 249.341 92.5382 247.391 84.0887L279.077 76.7766C281.189 85.2261 283.139 93.8381 284.927 102.613C286.714 111.387 288.42 120.243 290.045 129.18L258.359 136.492ZM318.075 147.46L288.826 137.71C292.726 128.936 296.382 119.349 299.794 108.95C303.369 98.3878 306.619 87.6635 309.544 76.7766L341.229 84.0887C338.142 95.463 334.567 106.512 330.505 117.237C326.605 127.961 322.462 138.035 318.075 147.46ZM240.079 95.0567V59.7151H270.546V48.747H246.173V15.8428H270.546V0H314.418V15.8428H336.355V48.747H314.418V59.7151H346.104V95.0567H240.079ZM458.222 227.892C446.685 223.668 435.636 217.168 425.074 208.394C414.512 199.782 405.088 189.301 396.801 176.952C388.676 164.44 382.339 150.547 377.79 135.273L407.038 110.9C409.963 122.436 414.675 133.486 421.175 144.048C427.674 154.447 435.149 163.546 443.598 171.346C452.21 179.145 461.147 184.995 470.409 188.895L458.222 227.892ZM396.07 226.674L379.008 187.676C388.27 182.151 396.07 175.652 402.407 168.177C408.907 160.703 414.106 151.766 418.006 141.366C422.068 130.967 424.912 118.78 426.537 104.806L464.316 114.556C461.553 131.942 457.085 147.704 450.91 161.84C444.898 175.814 437.261 188.164 427.999 198.888C418.9 209.612 408.257 218.874 396.07 226.674Z" fill="white"/>
<path d="M80.4326 227.892V114.556H225.455V184.02C225.455 194.419 225.049 202.544 224.236 208.394C223.424 214.406 221.637 218.793 218.874 221.555C216.112 224.318 211.725 226.024 205.713 226.674C199.863 227.486 191.82 227.892 181.583 227.892C178.495 227.892 174.596 227.811 169.883 227.649C165.334 227.486 158.265 227.161 148.679 226.674L147.46 197.426C153.797 197.751 159.159 198.076 163.546 198.4C167.934 198.563 171.508 198.644 174.271 198.644C175.896 198.644 177.033 198.563 177.683 198.4C178.333 198.238 178.739 197.832 178.902 197.182C179.064 196.532 179.145 195.394 179.145 193.77V191.332H124.305V171.833H179.145V164.521H124.305V145.022H179.145V137.71H124.305V227.892H80.4326ZM24.3735 148.679L0 142.585C2.27486 127.474 4.46848 112.281 6.58085 97.0066C8.69322 81.7326 10.5619 66.4585 12.1868 51.1844L36.5603 54.8404C34.9354 70.602 33.0668 86.3635 30.9544 102.125C29.0045 117.724 26.8109 133.242 24.3735 148.679ZM30.4669 227.892V3.65603H70.6832V227.892H30.4669ZM76.7766 96.2754C74.6642 89.2883 72.3081 82.0575 69.7083 74.583C67.2709 66.9459 64.7523 59.5526 62.1525 52.4031L86.526 45.091C89.2884 52.0781 92.0507 59.3902 94.813 67.0272C97.5754 74.6642 100.094 81.9763 102.369 88.9634L76.7766 96.2754ZM76.7766 107.244V80.4326H132.836V73.1206H81.6513V49.9657H132.836V42.6537H79.214V14.6241H132.836V1.21868H179.145V14.6241H230.33V42.6537H179.145V49.9657H225.455V73.1206H179.145V80.4326H235.205V107.244H76.7766Z" fill="white"/>
</svg>
