<svg width="281" height="44" viewBox="0 0 281 44" fill="none" xmlns="http://www.w3.org/2000/svg">
<path d="M34.5237 12.9274C34.5133 12.8566 34.5024 12.7722 34.4865 12.7034C35.796 12.5394 37.1189 12.4529 38.4394 12.4529C41.0317 12.4529 43.4246 12.7795 45.5528 13.4239L44.1758 17.3516L44.1505 17.4248L47.7975 19.8515C45.6683 22.4143 42.7656 24.677 39.3899 26.4028L39.1231 25.9181C37.8969 23.7541 36.3737 21.765 34.5976 20.0042C34.7379 18.9056 34.8083 17.8088 34.8083 16.744C34.8083 15.4774 34.7126 14.1935 34.5237 12.9274ZM15.3603 13.3753C15.1783 14.6036 15.0861 15.8467 15.0861 17.0697C15.0861 18.1006 15.1535 19.1501 15.2864 20.1904C13.598 21.8382 12.1457 23.676 10.9686 25.6543L10.5427 26.4009C7.5066 24.7516 4.71549 22.5356 2.2437 19.8127L5.74833 17.3368L5.80981 17.2931L5.78502 17.2219L4.45467 13.4848C6.9567 12.8458 9.5703 12.5222 12.2231 12.5222C13.305 12.5222 14.3973 12.5772 15.4728 12.6847L15.3603 13.3753ZM19.4361 16.828C18.4251 17.5068 17.4527 18.2484 16.5439 19.0342C16.4878 18.3805 16.4566 17.7239 16.4566 17.0677C16.4566 15.913 16.5439 14.7367 16.7159 13.5722L16.8349 12.8512L17.3318 12.921V15.8511L17.4329 15.9518H20.8265C20.3202 16.2529 19.8626 16.5412 19.4361 16.828ZM32.4431 15.9518L32.5438 13.0118L32.7451 12.9726L33.1299 12.8994L33.1681 13.1268C33.3466 14.3227 33.4373 15.5393 33.4373 16.7421C33.4373 17.412 33.4056 18.1153 33.3426 18.8358C32.5701 18.1585 31.7599 17.521 30.9333 16.9385C30.4657 16.6085 29.9713 16.2843 29.4304 15.9518H32.4431ZM29.0471 33.3265L37.9892 33.3358L38.0943 29.418V29.3178H37.9931L36.0603 29.3153C37.0004 28.9789 37.9108 28.6086 38.7751 28.2112C40.215 31.2283 41.0892 34.5647 41.3733 38.1304L36.9033 38.0768L36.8294 38.0763L35.4598 42.1179C32.0633 40.9186 28.8126 39.0434 26.0472 36.6879L26.2634 36.4811C27.2511 35.5155 28.1878 34.4546 29.0471 33.3265ZM33.4304 25.0935C33.7993 23.9874 34.0992 22.8411 34.3239 21.6825C35.7167 23.1736 36.929 24.8204 37.9292 26.5831L38.1572 26.9986C36.096 27.9445 33.9217 28.6763 31.6914 29.1758C32.3767 27.864 32.9633 26.4967 33.4304 25.0935ZM25.0506 20.4954L27.5561 16.4317C28.4808 16.9454 29.3491 17.4876 30.1384 18.0446C31.1961 18.7901 32.2056 19.6148 33.1423 20.4973C32.9221 21.9064 32.582 23.3091 32.1288 24.6686C31.6047 26.2408 30.909 27.8016 30.0596 29.3084L26.7047 29.304L32.1 20.6476L32.1957 20.4954H25.0506ZM11.1357 28.2373C11.631 28.4779 12.1403 28.7078 12.651 28.9229C12.946 29.0467 13.2539 29.1695 13.5703 29.2898L11.9156 29.2878H11.8145V29.388L11.81 33.2071V33.3068H11.9112L20.9256 33.3167C21.8643 34.5111 22.9036 35.6462 24.0172 36.6933C21.2504 39.0792 17.9635 40.9387 14.499 42.0767L13.1235 38.2065L8.58159 38.1392C8.81761 34.7071 9.63377 31.3457 11.1357 28.2373ZM15.6221 21.6417C15.8422 22.8042 16.1412 23.9579 16.5295 25.0994C17.0323 26.5792 17.6764 28.0153 18.4395 29.3954C18.4048 29.3954 18.372 29.3978 18.3383 29.3905L18.319 29.386C16.5488 29.0064 14.8213 28.4676 13.1458 27.7648L11.7104 27.115L11.6196 27.0708C11.7629 26.809 11.9097 26.5492 12.0629 26.2923C13.0596 24.618 14.2501 23.0636 15.6221 21.6417ZM22.6958 33.3186L27.3057 33.3245C26.6646 34.104 25.9917 34.8402 25.3005 35.5165L25.0283 35.7758C24.2032 35.0042 23.4257 34.1796 22.6958 33.3186ZM17.8167 24.5129H24.9222L24.3609 25.4137L21.9401 29.2991L19.8432 29.2972C18.9685 27.7913 18.258 26.2442 17.7319 24.6971C17.2891 23.3956 16.9564 22.0454 16.7427 20.6835C17.8202 19.685 18.9834 18.7715 20.2052 17.9518C21.008 17.4125 21.8896 16.8865 22.8307 16.385L17.9109 24.3607L17.8167 24.5129ZM25.0174 2.70914L21.9644 0.688582L20.9251 0L20.5433 0.550079L20.4476 0.688582C18.1053 4.09564 16.4977 7.65004 15.6687 11.2575C14.4821 11.1332 13.2797 11.0708 12.0912 11.0708C9.02933 11.0708 6.02997 11.478 3.17638 12.2815L2.57294 12.4514L2.47774 12.477L2.51046 12.5698L3.99254 16.7342L0.867728 18.9419L0.082806 19.4964L0 19.5553L0.0664445 19.6315L0.488407 20.1172L0.867728 20.546C3.51256 23.4918 6.51143 25.8817 9.79095 27.6567C8.13433 31.0687 7.20016 34.8647 7.01323 38.9417L6.98596 39.5527L12.0163 39.649L13.3184 43.3114L13.5172 43.8698L14.1717 43.7647C14.6329 43.6253 15.091 43.474 15.5457 43.3114C19.0028 42.0737 22.259 40.1661 25.0372 37.7428C27.7926 40.116 30.9848 42.0231 34.3482 43.3114C34.8212 43.4926 35.2977 43.6616 35.7762 43.8178L36.3325 44C36.4015 43.9661 36.5264 43.6994 36.6776 43.3114C37.1165 42.1823 37.7769 40.0262 37.9222 39.5954L42.8906 39.6558L42.9496 38.9344C42.717 34.8746 41.7705 31.0829 40.1337 27.6616C43.7583 25.8105 46.8534 23.3867 49.1318 20.6211L49.5587 20.0863L49.94 19.5927L50 19.5151L49.9182 19.4605L49.1318 18.9375L45.9732 16.8359L47.4672 12.5723L47.498 12.4853L47.4102 12.4554L46.8539 12.2638C44.4505 11.4382 41.5875 11.0016 38.5752 11.0016C37.1794 11.0016 35.7474 11.0944 34.3164 11.2761C33.5181 7.51939 31.8888 3.95861 29.472 0.688582L29.3763 0.559411L29.0392 0.108543C29.0168 0.0785832 28.6028 0.330539 28.0465 0.688582C26.9373 1.40418 25.2643 2.54314 25.0174 2.70914ZM30.9878 11.9328H19.4054C18.6438 11.7653 17.8871 11.6239 17.1141 11.5193C17.9114 8.13872 19.4034 4.96054 21.3303 2.06968L24.9673 4.47726C25.2375 4.47578 28.158 2.40513 28.6251 2.0903C30.725 5.03618 32.1555 8.22173 32.8805 11.5635C32.2488 11.6691 31.6126 11.7933 30.9878 11.9328Z" fill="#213A7D"/>
<path d="M71.5625 33.7812C66.1875 32.5312 62.625 29.6875 60.875 25.25H57.9688V31.4375L63.2188 30.5L63.5938 32.0938L53.9375 34.0625C53.875 34.5625 53.7188 34.6875 53.4688 34.4375L52.8125 32.1875L56.0938 31.7188V25.25H51.5938V23.4688H56.0938V13.3438H69.5938V15.125H57.9688V16.5312H68.2812V18.3125H57.9688V19.9062H68.4688V21.6875H57.9688V23.4688H72.4062V25.25H62.75C63.125 26.0625 63.8125 26.9688 64.8125 27.9688L67.8125 25.625L69.4062 26.75C69.8438 27.0625 69.75 27.2188 69.125 27.2188L66.2188 29.1875C67.4688 30.0625 69.625 30.9062 72.6875 31.7188L71.5625 33.7812ZM89.015 26.8438C90.0775 25.4062 90.8587 24.2188 91.3587 23.2812H88.7337V32.5625C88.7337 33.625 88.2337 34.1562 87.2337 34.1562H85.5462L85.1712 32.375H86.5775C86.765 32.375 86.8587 32.2812 86.8587 32.0938V23.2812H83.765V21.5H91.9212L92.39 21.0312L93.89 22.3438C94.14 22.5938 94.0462 22.75 93.6087 22.8125C92.8587 24.5 91.8587 26.1875 90.6087 27.875L89.015 26.8438ZM86.2962 16.4375C86.7337 16.6875 87.265 17.0625 87.89 17.5625L89.5775 15.4062H83.8587V13.625H90.89L91.1712 13.3438L92.5775 14.75C92.8275 15 92.7337 15.1562 92.2962 15.2188L89.015 18.5L90.0462 19.5312L88.7337 20.8438C87.5462 19.5312 86.3587 18.4375 85.1712 17.5625L86.2962 16.4375ZM83.4837 31.625L72.9837 33.2188C72.9212 33.6562 72.765 33.75 72.515 33.5L71.9525 31.1562L76.9212 30.7812V27.875H72.7025V26.0938H76.9212V23.5625H74.8587H72.7962V13.5312H82.9212V23.5625H78.7962V26.0938H83.015V27.875H78.7962V30.5938L83.39 30.0312L83.4837 31.625ZM76.9212 15.0312H74.6712V17.8438H76.9212V15.0312ZM76.9212 22.0625V19.3438H74.6712V22.0625H76.9212ZM81.0462 17.8438V15.0312H78.7962V17.8438H81.0462ZM81.0462 22.0625V19.3438H78.7962V22.0625H81.0462ZM108.061 27.6875C109.311 28.9375 111.155 30.1875 113.592 31.4375L112.467 33.4062C110.342 32.4062 108.342 30.9688 106.467 29.0938L108.061 27.6875ZM99.905 29.375C98.8425 30.875 97.2175 32.3438 95.03 33.7812L93.6237 32C95.6237 30.8125 97.2175 29.4062 98.405 27.7812L100.186 28.8125C100.499 29.0625 100.405 29.25 99.905 29.375ZM96.0612 26.9375V27.875H94.1862V14.375H95.9675C96.4675 14.4375 96.4987 14.625 96.0612 14.9375V25.1562H113.311V26.9375H104.592V34.1562H102.436V26.9375H96.0612ZM100.186 22.4375H108.342V20.6562H100.186V22.4375ZM100.186 19.1562H108.342V17.6562H100.186V19.1562ZM100.186 16.1562H108.342V14.6562H100.186V16.1562ZM98.3112 23.9375V13.1562H110.217V23.9375H98.3112ZM133.483 33.7812C128.108 32.5312 124.545 29.6875 122.795 25.25H119.889V31.4375L125.139 30.5L125.514 32.0938L115.858 34.0625C115.795 34.5625 115.639 34.6875 115.389 34.4375L114.733 32.1875L118.014 31.7188V25.25H113.514V23.4688H118.014V13.3438H131.514V15.125H119.889V16.5312H130.201V18.3125H119.889V19.9062H130.389V21.6875H119.889V23.4688H134.326V25.25H124.67C125.045 26.0625 125.733 26.9688 126.733 27.9688L129.733 25.625L131.326 26.75C131.764 27.0625 131.67 27.2188 131.045 27.2188L128.139 29.1875C129.389 30.0625 131.545 30.9062 134.608 31.7188L133.483 33.7812ZM150.935 26.8438C151.997 25.4062 152.779 24.2188 153.279 23.2812H150.654V32.5625C150.654 33.625 150.154 34.1562 149.154 34.1562H147.466L147.091 32.375H148.497C148.685 32.375 148.779 32.2812 148.779 32.0938V23.2812H145.685V21.5H153.841L154.31 21.0312L155.81 22.3438C156.06 22.5938 155.966 22.75 155.529 22.8125C154.779 24.5 153.779 26.1875 152.529 27.875L150.935 26.8438ZM148.216 16.4375C148.654 16.6875 149.185 17.0625 149.81 17.5625L151.497 15.4062H145.779V13.625H152.81L153.091 13.3438L154.497 14.75C154.747 15 154.654 15.1562 154.216 15.2188L150.935 18.5L151.966 19.5312L150.654 20.8438C149.466 19.5312 148.279 18.4375 147.091 17.5625L148.216 16.4375ZM145.404 31.625L134.904 33.2188C134.841 33.6562 134.685 33.75 134.435 33.5L133.872 31.1562L138.841 30.7812V27.875H134.622V26.0938H138.841V23.5625H136.779H134.716V13.5312H144.841V23.5625H140.716V26.0938H144.935V27.875H140.716V30.5938L145.31 30.0312L145.404 31.625ZM138.841 15.0312H136.591V17.8438H138.841V15.0312ZM138.841 22.0625V19.3438H136.591V22.0625H138.841ZM142.966 17.8438V15.0312H140.716V17.8438H142.966ZM142.966 22.0625V19.3438H140.716V22.0625H142.966ZM163.981 29.375V17.75H156.575V15.6875H173.544V17.75H166.137V29.375H175.325V31.4375H154.887V29.375H163.981ZM175.903 31.3438C179.403 30.5312 182.153 29.1875 184.153 27.3125H175.903V25.8125H184.996V24.4062H178.903V22.9062H184.996V21.4062H177.871V19.9062H182.746L181.715 18.125H175.903V16.625H180.309C179.871 16 179.309 15.4062 178.621 14.8438L180.028 13.7188C180.778 14.1562 181.496 14.8438 182.184 15.7812L181.153 16.625H183.121V12.6875H184.903C185.403 12.75 185.434 12.9375 184.996 13.25V16.625H186.778V12.6875H188.559C189.059 12.75 189.09 12.9375 188.653 13.25V16.625H190.903L189.871 15.875C190.496 15 191.059 14.1875 191.559 13.4375L192.965 14.375C193.403 14.625 193.371 14.7812 192.871 14.8438C192.559 15.4062 192.121 16 191.559 16.625H196.059V18.125H190.153L189.121 19.9062H194.278V21.4062H186.871V22.9062H193.153V24.4062H186.871V25.8125H196.153V27.3125H187.996C190.184 29.25 192.934 30.5625 196.246 31.25L195.496 33.2188C192.059 32.3438 189.184 30.8438 186.871 28.7188V33.9688H184.996V28.9062C182.809 30.8438 180.028 32.2812 176.653 33.2188L175.903 31.3438ZM184.528 19.9062H187.434L188.371 18.125H183.496L184.528 19.9062ZM207.324 12.4062C207.949 12.5312 207.98 12.7812 207.417 13.1562V14.6562H216.792V16.4375H195.886V14.6562H205.261V12.4062H207.324ZM210.886 19.1562H201.886V21.125H210.886V19.1562ZM200.292 22.625V17.6562H212.48V22.625H200.292ZM215.667 32.375C215.667 33.375 215.167 33.875 214.167 33.875H212.386L212.011 32.0938H213.417C213.667 32.0938 213.792 31.9688 213.792 31.7188V25.7188H198.98V34.1562H197.105V23.9375H215.667V32.375ZM203.199 31.625V32.6562H201.605V26.8438H211.167V31.625H203.199ZM203.199 30.125H209.574V28.3438H203.199V30.125ZM216.432 17.8438C217.87 16.5312 218.995 14.7812 219.807 12.5938L221.776 13.1562C222.026 13.4062 221.932 13.5625 221.495 13.625L220.932 14.8438H226.932V16.3438H223.651L224.682 18.125L222.62 18.5L221.682 16.3438H220.276C219.651 17.3438 218.839 18.3125 217.839 19.25L216.432 17.8438ZM226.651 17C227.526 15.6875 228.182 14.1875 228.62 12.5L230.589 12.875C230.839 13.125 230.745 13.2812 230.307 13.3438L229.745 14.8438H237.339V16.3438H232.932L234.151 17.9375L232.089 18.5L230.87 16.3438H229.182C228.932 16.9062 228.62 17.4375 228.245 17.9375L226.651 17ZM224.682 32.0938C224.12 31.2812 223.307 30.4062 222.245 29.4688L223.464 28.3438H218.12V26.5625H230.495V24.9688H216.807V23.1875H226.182V21.3125H219.526V19.5312H226.182V18.0312H227.964C228.464 18.0938 228.495 18.2812 228.057 18.5938V19.5312H234.995V21.3125H228.057V23.1875H237.526V24.9688H232.37V26.5625H236.401V28.3438H232.37V32.4688C232.37 33.4688 231.87 33.9688 230.87 33.9688H228.62L228.245 32.1875H230.12C230.37 32.1875 230.495 32.0625 230.495 31.8125V28.3438H224.026C224.964 28.9688 225.745 29.75 226.37 30.6875L224.682 32.0938ZM253.291 16.625H257.885V21.7812H256.01V18.4062H239.51V22.0625H237.635V16.625H251.229L253.197 12.5L255.166 13.4375C255.416 13.75 255.322 13.9375 254.885 14L253.291 16.625ZM247.572 12.5938C248.51 13.7812 249.135 14.75 249.447 15.5L247.479 16.5312C246.979 15.4062 246.416 14.4375 245.791 13.625L247.572 12.5938ZM246.916 23.375L248.51 23.4688L251.229 21.875H241.291V20.375H252.822L253.104 20.0938L254.697 21.5938C254.885 21.8438 254.729 21.9688 254.229 21.9688C252.354 23.1562 250.541 24.125 248.791 24.875V25.8125H258.541V27.5938H248.791V32.375C248.791 33.375 248.291 33.875 247.291 33.875H244.76L244.385 31.8125H246.541C246.791 31.8125 246.916 31.6875 246.916 31.4375V27.5938H237.166V25.8125H246.916V23.375ZM242.041 16.5312C241.479 15.4062 240.916 14.5312 240.354 13.9062L242.135 12.875C242.822 13.625 243.447 14.5 244.01 15.5L242.041 16.5312ZM262.869 34.0625H260.994V23.8438C260.431 25.2812 259.587 26.75 258.462 28.25L257.15 26.5625C259.15 24.0625 260.4 21.5 260.9 18.875H257.619V17.0938H260.994V12.5H262.775C263.275 12.5625 263.306 12.75 262.869 13.0625V17.0938H265.306V18.875H262.869V22.1562C264.369 23.2188 265.462 24.1875 266.15 25.0625L264.837 26.8438C264.212 25.9688 263.556 25.1562 262.869 24.4062V34.0625ZM272.056 29.9375C270.931 31.25 268.744 32.6562 265.494 34.1562L264.65 32.0938C267.337 31.0938 269.369 29.9062 270.744 28.5312C269.931 27.4688 269.119 26.2188 268.306 24.7812L269.806 23.75C270.619 25.1875 271.306 26.25 271.869 26.9375C272.244 26.5 272.837 25.1875 273.65 23L275.619 24.0312C275.994 24.2188 275.869 24.4062 275.244 24.5938C274.681 25.9688 273.994 27.2188 273.181 28.3438C274.494 29.4062 276.462 30.4688 279.087 31.5312L277.962 33.5938C275.087 32.2812 273.119 31.0625 272.056 29.9375ZM271.025 20.75C271.525 21.125 271.4 21.2812 270.65 21.2188C269.65 22.2188 268.275 23.25 266.525 24.3125L265.306 22.5312C266.931 21.7812 268.369 20.7188 269.619 19.3438L271.025 20.75ZM266.619 18.2188V16.4375H271.119V12.5H272.9C273.4 12.5625 273.431 12.75 272.994 13.0625V16.4375H278.337V18.2188H266.619ZM274.306 19.1562C276.306 20.2812 277.775 21.2812 278.712 22.1562L277.4 23.8438C276.4 22.9062 275.025 21.9062 273.275 20.8438L274.306 19.1562Z" fill="#213A7D"/>
</svg>
