<svg width="249" height="42" viewBox="0 0 249 42" fill="none" xmlns="http://www.w3.org/2000/svg">
<g clip-path="url(#clip0_2104_10230)">
<path d="M23.9981 27.2185L28.6605 19.2327H25.662H24.007H23.5177L26.0713 14.852H28.6605V11.247H16.3551V14.852H21.4178L16.7644 22.8378H20.8128H21.0619H21.9072L19.3536 27.2185H11.1855V30.8235H33.8389V27.2185H23.9981Z" fill="#203A82"/>
<path d="M39.9241 15.9715L40.9473 11.9698L40.4846 11.8111C40.3067 11.7494 36.0803 10.3391 30.368 11.0267H30.3591C29.0957 5.64995 26.4709 2.29171 26.3552 2.15068L26.0527 1.77167L22.5826 4.04575L19.1125 1.77167L18.81 2.15068C18.6943 2.29171 16.0695 5.65876 14.8061 11.0443H14.7972C9.02261 10.3303 4.74286 11.7494 4.55601 11.8199L4.09333 11.9786L5.11656 15.9803L1.80664 18.4835L2.07357 18.8978C2.18034 19.0653 4.67168 22.8642 9.69883 25.8699C7.35876 31.0703 7.46553 35.4774 7.47443 35.6714L7.49222 36.1561L11.6474 36.3677L13.0799 40.246L13.5515 40.1137C13.7473 40.0609 18.1961 38.8181 22.6004 34.8869C27.0047 38.8181 31.4535 40.0609 31.6493 40.1137L32.1208 40.246L33.5534 36.3677L37.7086 36.1561L37.7264 35.6714C37.7264 35.4774 37.842 31.0262 35.4664 25.7994C40.4134 22.8025 42.8692 19.0653 42.9671 18.9066L43.234 18.4923L39.9241 15.9891V15.9715ZM3.23026 18.7127L6.30884 16.3945L5.35679 12.6837C6.59356 12.3488 10.1526 11.5555 14.5569 12.0844C14.548 12.1549 14.5302 12.2166 14.5213 12.2871C14.4947 12.4193 14.4769 12.5515 14.4502 12.6837C14.4235 12.8512 14.3968 13.0187 14.3701 13.1861C14.3523 13.3184 14.3345 13.4506 14.3167 13.5916C14.2989 13.7591 14.2722 13.9265 14.2544 14.1028C14.2366 14.235 14.2277 14.3673 14.2188 14.4995C14.201 14.6669 14.1921 14.8432 14.1832 15.0195C14.1832 15.1517 14.1654 15.2839 14.1565 15.4162C14.1476 15.5924 14.1387 15.7687 14.1387 15.945C14.1387 16.0684 14.1387 16.2006 14.1299 16.324C14.1299 16.5091 14.1299 16.6942 14.1299 16.8793C14.1299 16.9939 14.1299 17.1173 14.1299 17.2319C14.1299 17.4346 14.1476 17.6374 14.1565 17.8401C14.1565 17.937 14.1565 18.0428 14.1743 18.1398C14.1921 18.4306 14.2188 18.7303 14.2455 19.0212C14.2455 19.0212 14.2455 19.03 14.2455 19.0388C14.032 19.268 13.8184 19.4972 13.6138 19.7263C13.5426 19.8057 13.4803 19.885 13.418 19.9643C13.2846 20.123 13.1511 20.2816 13.0176 20.4403C12.9376 20.5373 12.8664 20.6342 12.7863 20.7312C12.6706 20.881 12.555 21.022 12.4393 21.1719C12.3592 21.2776 12.2791 21.3834 12.208 21.4892C12.1012 21.6302 11.9944 21.7801 11.8965 21.9299C11.8165 22.0445 11.7453 22.1591 11.6652 22.2648C11.5673 22.4147 11.4695 22.5557 11.3716 22.7056C11.3004 22.8201 11.2292 22.9435 11.1491 23.0581C11.0602 23.208 10.9712 23.3578 10.8822 23.5077C10.811 23.6311 10.7399 23.7456 10.6776 23.869C10.5886 24.0189 10.5085 24.1775 10.4284 24.3274C10.3662 24.4508 10.295 24.5742 10.2327 24.6976C10.1971 24.7593 10.1704 24.821 10.1348 24.8827C6.29994 22.5733 3.98656 19.7263 3.23026 18.6951V18.7127ZM36.6497 35.1425L32.7882 35.3364L31.4535 38.9326C30.2257 38.5095 26.7556 37.1433 23.3656 34.1465C23.4101 34.1024 23.4635 34.0495 23.5079 34.0055C23.5969 33.9173 23.6859 33.8292 23.7749 33.7322C23.8994 33.6088 24.024 33.4766 24.1397 33.3532C24.2287 33.2651 24.3087 33.1681 24.3977 33.08C24.5223 32.9477 24.6379 32.8155 24.7536 32.6745C24.8337 32.5864 24.9138 32.4982 24.985 32.4013C25.1095 32.2602 25.2252 32.1104 25.3409 31.9694C25.412 31.8812 25.4832 31.8019 25.5455 31.7137C25.679 31.5463 25.8124 31.37 25.9459 31.1937C25.9459 31.1937 25.9548 31.1761 25.9637 31.1673H24.6112C24.6112 31.1673 24.549 31.2466 24.5223 31.2818C24.46 31.3612 24.3977 31.4317 24.3354 31.511C24.1041 31.7931 23.8639 32.0663 23.6147 32.3396C23.5791 32.3748 23.5524 32.4189 23.5168 32.4541C23.241 32.7538 22.9652 33.0359 22.6716 33.3179C22.636 33.3532 22.6093 33.3796 22.5737 33.4149C22.5381 33.3796 22.5114 33.3532 22.4758 33.3179C22.1911 33.0359 21.9064 32.745 21.6305 32.4541C21.6039 32.4189 21.5683 32.3836 21.5416 32.3484C21.2924 32.0751 21.0522 31.7931 20.812 31.511C20.7497 31.4405 20.6963 31.37 20.634 31.2995C20.5984 31.2554 20.5628 31.2113 20.5361 31.1673H19.1837C19.1837 31.1673 19.2015 31.1937 19.2104 31.2025C19.3439 31.3788 19.4773 31.5551 19.6108 31.7314C19.6731 31.8195 19.7443 31.8988 19.8154 31.9782C19.9311 32.128 20.0557 32.269 20.1713 32.4101C20.2514 32.4982 20.3226 32.5864 20.4027 32.6745C20.5183 32.8067 20.6429 32.9389 20.7586 33.0711C20.8387 33.1593 20.9276 33.2474 21.0077 33.3444C21.1323 33.4678 21.2479 33.6 21.3725 33.7234C21.4615 33.8115 21.5505 33.8997 21.6394 33.9878C21.6839 34.0319 21.7284 34.0848 21.7818 34.1289C18.3918 37.1257 14.9217 38.4919 13.6939 38.915L12.3681 35.3188L8.50655 35.1249C8.55104 33.8644 8.82687 30.3387 10.5886 26.3723C10.6598 26.4164 10.7399 26.4516 10.811 26.4869C10.9356 26.5574 11.0691 26.6191 11.2025 26.6896C11.3093 26.7425 11.4161 26.7954 11.5228 26.8483H14.2188C14.2188 26.8483 14.1654 26.8306 14.1476 26.8218C13.9252 26.7425 13.7117 26.6544 13.4892 26.5662C13.418 26.5398 13.3558 26.5133 13.2846 26.4869C12.9999 26.3723 12.724 26.2489 12.4393 26.1167C12.377 26.0902 12.3058 26.055 12.2436 26.0197C12.03 25.9228 11.8165 25.817 11.6029 25.7024C11.5139 25.6583 11.4161 25.6055 11.3271 25.5614C11.2292 25.5085 11.1402 25.4556 11.0424 25.4115C11.0869 25.3234 11.1314 25.2353 11.1758 25.1471C11.2203 25.059 11.2648 24.9708 11.3093 24.8915C11.4161 24.6888 11.5317 24.486 11.6385 24.2833C11.6741 24.2304 11.7008 24.1687 11.7364 24.1158C11.8788 23.8602 12.03 23.6134 12.1902 23.3666C12.2258 23.3049 12.2702 23.252 12.3058 23.1903C12.4304 23.0052 12.5461 22.8201 12.6706 22.635C12.724 22.5557 12.7863 22.4764 12.8397 22.3971C12.9554 22.2296 13.071 22.0709 13.1956 21.9035C13.249 21.8241 13.3113 21.7536 13.3647 21.6743C13.507 21.4804 13.6583 21.2953 13.8095 21.1102C13.8451 21.0661 13.8718 21.0308 13.9074 20.9868C14.0765 20.784 14.2455 20.5813 14.4235 20.3874C14.8417 22.5205 15.7492 24.8562 16.6746 26.8483H17.858C16.4966 23.9572 15.6158 21.357 15.3488 19.4002C16.6301 18.1221 18.4986 16.7559 20.5806 15.5219L20.7764 15.187H19.0947C17.6266 16.1125 16.292 17.0997 15.2243 18.0516C15.2065 17.8048 15.1976 17.558 15.1887 17.3112C15.1887 17.276 15.1887 17.2407 15.1887 17.2055C15.1887 16.9587 15.1887 16.7119 15.1887 16.4651C15.1887 16.3681 15.1887 16.28 15.1887 16.183C15.1887 15.9891 15.1976 15.7952 15.2065 15.6013C15.2065 15.5043 15.2065 15.4073 15.2243 15.3104C15.2332 15.0988 15.251 14.8873 15.2687 14.6758C15.2687 14.6052 15.2776 14.5347 15.2865 14.4642C15.3132 14.1822 15.3399 13.9001 15.3844 13.6269C15.3844 13.5652 15.4022 13.4946 15.4111 13.4329C15.4378 13.2126 15.4734 13.001 15.509 12.7807C15.5268 12.6837 15.5446 12.5956 15.5624 12.4986C15.5802 12.4105 15.598 12.3223 15.6158 12.2342C15.7047 12.2518 15.7937 12.2606 15.8827 12.2783C15.9183 12.2783 15.9628 12.2959 15.9984 12.2959V11.2382C15.9984 11.2382 15.9984 11.2294 15.9984 11.2206C15.945 11.2118 15.8916 11.2029 15.8382 11.1941C16.8169 7.11311 18.6409 4.20441 19.3439 3.19076L22.5648 5.30619L25.7857 3.19076C26.4886 4.20441 28.3127 7.09549 29.2825 11.1765C29.2024 11.1853 29.1223 11.2029 29.0512 11.2206C29.0334 11.2206 29.0156 11.2206 29.0067 11.2206C29.0067 11.2206 29.0067 11.2294 29.0067 11.2382V12.2959C29.0779 12.2871 29.1579 12.2695 29.2291 12.2606C29.3181 12.243 29.416 12.2342 29.5049 12.2166C29.5227 12.3047 29.5405 12.3929 29.5583 12.4898C29.5761 12.578 29.5939 12.6749 29.6028 12.7631C29.6384 12.9834 29.674 13.2038 29.7007 13.4241C29.7096 13.4858 29.7185 13.5475 29.7274 13.618C29.763 13.9001 29.7986 14.1822 29.8253 14.4642C29.8253 14.5347 29.8342 14.5964 29.8431 14.6669C29.8608 14.8873 29.8786 15.0988 29.8875 15.3192C29.8875 15.4162 29.8964 15.5043 29.9053 15.6013C29.9142 15.7952 29.9231 15.9979 29.9231 16.1918C29.9231 16.28 29.9231 16.3681 29.9231 16.4651C29.9231 16.7119 29.9231 16.9587 29.9231 17.2143C29.9231 17.2495 29.9231 17.2848 29.9231 17.3112C29.9231 17.558 29.9053 17.8048 29.8875 18.0604C28.891 17.1878 27.6186 16.2623 26.1772 15.3633L25.6434 16.28C27.325 17.3289 28.7664 18.413 29.763 19.3914C29.496 21.4187 28.6241 24.0277 27.2894 26.8747H28.4728C29.3181 25.0237 30.2612 22.6262 30.6883 20.3786C30.8574 20.5725 31.0353 20.7752 31.1955 20.9691C31.2222 21.0044 31.2489 21.0397 31.2845 21.0749C31.4357 21.26 31.587 21.4539 31.7382 21.6478C31.7916 21.7184 31.8539 21.7977 31.9073 21.8682C32.0319 22.0269 32.1475 22.1943 32.2632 22.3618C32.3166 22.4411 32.3789 22.5205 32.4323 22.5998C32.5568 22.7849 32.6814 22.9612 32.7971 23.1463C32.8327 23.208 32.8771 23.2697 32.9127 23.3314C33.064 23.5782 33.2153 23.825 33.3665 24.0718C33.4021 24.1335 33.4288 24.1864 33.4644 24.2481C33.5712 24.442 33.6868 24.6359 33.7936 24.8386C33.8381 24.9268 33.8915 25.0149 33.936 25.1119C33.9804 25.2 34.0249 25.2793 34.0605 25.3675C33.9715 25.4204 33.8826 25.4732 33.7847 25.5173C33.6868 25.5702 33.589 25.6231 33.5 25.6672C33.2953 25.7729 33.0907 25.8787 32.8771 25.9757C32.806 26.0109 32.7437 26.0462 32.6725 26.0726C32.3967 26.2048 32.1208 26.3282 31.845 26.4428C31.7738 26.4693 31.7027 26.5045 31.6315 26.531C31.4179 26.6191 31.2044 26.6984 30.9909 26.7866C30.9108 26.813 30.8396 26.8395 30.7595 26.8747H33.4555C33.6067 26.7954 33.7669 26.7249 33.9182 26.6455C34.0427 26.5838 34.1673 26.5133 34.3008 26.4428C34.3719 26.3987 34.452 26.3635 34.5232 26.3282C36.3116 30.3211 36.5964 33.8909 36.6408 35.1513L36.6497 35.1425ZM35.0037 24.821C34.977 24.7593 34.9414 24.6976 34.9058 24.6359C34.8435 24.5125 34.7723 24.3891 34.7101 24.2657C34.63 24.1158 34.541 23.9572 34.4609 23.8073C34.3897 23.6839 34.3186 23.5605 34.2474 23.446C34.1584 23.2961 34.0694 23.1463 33.9804 23.0052C33.9093 22.8907 33.8381 22.7673 33.758 22.6527C33.6601 22.5028 33.5712 22.3618 33.4733 22.2208C33.3932 22.1062 33.322 21.9916 33.2419 21.877C33.1441 21.736 33.0373 21.5861 32.9305 21.4451C32.8505 21.3393 32.7704 21.2248 32.6903 21.119C32.5835 20.9691 32.4679 20.8281 32.3522 20.6871C32.2721 20.5901 32.2009 20.4844 32.1208 20.3874C31.9963 20.2287 31.8628 20.0789 31.7294 19.9202C31.6582 19.8409 31.5959 19.7528 31.5247 19.6735C31.329 19.4531 31.1332 19.2416 30.9286 19.03C30.9197 19.0212 30.9019 19.0036 30.893 18.9948C30.893 18.9859 30.893 18.9771 30.893 18.9683C30.9197 18.6774 30.9464 18.3866 30.9642 18.0957C30.9642 17.9987 30.9642 17.9018 30.9731 17.8048C30.982 17.6021 30.9908 17.3994 30.9997 17.1966C30.9997 17.0821 30.9997 16.9587 30.9997 16.8441C30.9997 16.659 30.9997 16.4739 30.9997 16.2976C30.9997 16.1742 30.9997 16.042 30.9909 15.9186C30.9909 15.7423 30.982 15.566 30.9731 15.3897C30.9731 15.2575 30.9553 15.1253 30.9464 15.0019C30.9375 14.8344 30.9197 14.6581 30.9108 14.4907C30.9019 14.3584 30.8841 14.2262 30.8752 14.094C30.8574 13.9265 30.8396 13.7591 30.8129 13.5828C30.7951 13.4506 30.7773 13.3184 30.7595 13.1773C30.7328 13.0099 30.7061 12.8424 30.6794 12.6749C30.6616 12.5427 30.6349 12.4105 30.6083 12.2783C30.5994 12.2166 30.5905 12.1461 30.5727 12.0844C34.9325 11.582 38.4293 12.3576 39.6571 12.6925L38.7051 16.4034L41.7837 18.7215C41.0274 19.744 38.7585 22.5293 34.9948 24.8298L35.0037 24.821Z" fill="#203A82"/>
<path d="M25.3861 30.1712C25.3506 30.2241 25.3061 30.2858 25.2705 30.3387C25.1548 30.5062 25.0213 30.656 24.9057 30.8147H26.2403C26.3649 30.6384 26.4984 30.4621 26.614 30.277C26.6496 30.2241 26.6852 30.1624 26.7208 30.1095C26.8454 29.9156 26.9699 29.7217 27.0945 29.5278C27.1479 29.4397 27.2013 29.3427 27.2635 29.2546C27.3347 29.1312 27.4148 29.0078 27.486 28.8844C27.655 28.8491 27.8152 28.8138 27.9843 28.7786C28.0999 28.7521 28.2156 28.7257 28.3313 28.6993C28.5804 28.6376 28.8295 28.5759 29.0787 28.5053C29.1498 28.4877 29.221 28.4701 29.2922 28.4525C29.6125 28.3643 29.9239 28.2674 30.2443 28.1704C30.3332 28.144 30.4222 28.1087 30.5201 28.0734C30.7425 27.9941 30.965 27.9236 31.1874 27.8443C31.312 27.8002 31.4276 27.7473 31.5433 27.7032C31.7302 27.6327 31.9259 27.5534 32.1128 27.4741C32.2373 27.4212 32.3708 27.3683 32.4953 27.3066C32.5665 27.2713 32.6466 27.2449 32.7178 27.2097H29.7371C29.5413 27.2714 29.3545 27.333 29.1587 27.3859C29.0876 27.4036 29.0164 27.43 28.9541 27.4476C28.6783 27.527 28.3935 27.5975 28.1177 27.6592C28.1889 27.5181 28.2601 27.3595 28.3313 27.2097H27.139C27.0233 27.4476 26.9076 27.6856 26.792 27.9324C25.4039 28.1792 23.9714 28.3114 22.5211 28.3114C22.4588 28.3114 22.4054 28.3114 22.3432 28.3114C21.0174 28.3026 19.7006 28.1792 18.4282 27.9677C18.3036 27.7121 18.1791 27.4653 18.0634 27.2097H16.8711C16.9512 27.3771 17.0313 27.5446 17.1025 27.7032C16.8177 27.6415 16.533 27.571 16.2572 27.4917C16.1771 27.4741 16.097 27.4476 16.0169 27.4212C15.8034 27.3595 15.581 27.2978 15.3674 27.2273C15.3407 27.2273 15.314 27.2097 15.2873 27.2008H12.3066C12.4312 27.2537 12.5558 27.3154 12.6803 27.3683C12.8049 27.4212 12.9295 27.4741 13.054 27.527C13.2498 27.6063 13.4455 27.6856 13.6413 27.7561C13.757 27.8002 13.8726 27.8443 13.9883 27.8883C14.2196 27.9677 14.451 28.047 14.6823 28.1263C14.7624 28.1528 14.8514 28.188 14.9314 28.2145C15.2518 28.3114 15.5721 28.4084 15.8924 28.4965C15.9636 28.5142 16.0258 28.5318 16.097 28.5494C16.3551 28.6199 16.6042 28.6816 16.8622 28.7433C16.9779 28.7698 17.1025 28.7962 17.2181 28.8227C17.3872 28.8579 17.5473 28.8932 17.7164 28.9284C17.7876 29.0518 17.8677 29.1752 17.9477 29.3074C18.0011 29.3956 18.0545 29.4837 18.1079 29.5719C18.2325 29.7658 18.357 29.9597 18.4905 30.1536C18.5261 30.2065 18.5617 30.2594 18.5973 30.3123C18.7129 30.4886 18.8375 30.656 18.9621 30.8235H20.2967C20.181 30.6648 20.0565 30.515 19.9408 30.3563C19.9052 30.3035 19.8696 30.2506 19.8251 30.1977C19.6205 29.9068 19.4158 29.6159 19.229 29.3163C19.2023 29.2722 19.1667 29.2281 19.14 29.184C20.2611 29.3163 21.3822 29.3868 22.4766 29.3868H22.53C22.9215 29.3868 23.3219 29.378 23.7223 29.3603C23.7223 29.3603 23.7223 29.3603 23.7312 29.3603C24.5142 29.3251 25.2972 29.2722 26.0802 29.1664C26.0535 29.2105 26.0179 29.2634 25.9912 29.3074C25.8043 29.5983 25.5997 29.898 25.395 30.1801L25.3861 30.1712Z" fill="#203A82"/>
<path d="M22.5122 14.4907C23.5087 14.9931 24.4608 15.5307 25.3594 16.0772L25.8933 15.1605C25.1993 14.7375 24.4697 14.3232 23.7223 13.9177C23.9625 13.812 24.2116 13.7062 24.4608 13.6092C24.5231 13.5828 24.5853 13.5652 24.6476 13.5387C24.8523 13.4594 25.0658 13.3801 25.2794 13.3007C25.3772 13.2655 25.4662 13.2302 25.5641 13.2038C25.7509 13.1421 25.9378 13.0804 26.1246 13.0187C26.2225 12.9922 26.3204 12.957 26.4093 12.9305C26.6229 12.8688 26.8364 12.8071 27.05 12.7454C27.1212 12.7278 27.1834 12.7102 27.2546 12.6925C27.5304 12.622 27.8152 12.5515 28.0999 12.4898C28.1711 12.4722 28.2423 12.4634 28.3223 12.4457C28.4469 12.4193 28.5626 12.3929 28.6871 12.3752V11.2911C28.5092 11.3263 28.3223 11.3616 28.1444 11.3968C28.0198 11.4233 27.8864 11.4497 27.7618 11.485C27.5749 11.5291 27.3881 11.5731 27.2012 11.6172C27.0767 11.6525 26.9521 11.6789 26.8275 11.7142C26.6318 11.767 26.436 11.8199 26.2492 11.8816C26.1424 11.9169 26.0268 11.9433 25.92 11.9786C25.6886 12.0491 25.4662 12.1284 25.2349 12.2078C25.1637 12.2342 25.0925 12.2518 25.0213 12.2783C24.7277 12.384 24.4341 12.4898 24.1405 12.6132C24.0604 12.6485 23.9892 12.6749 23.9091 12.7102C23.6956 12.7983 23.482 12.8865 23.2685 12.9834C23.1617 13.0275 23.0549 13.0804 22.9393 13.1333C22.8058 13.195 22.6723 13.2567 22.5389 13.3184C22.4054 13.2567 22.2809 13.195 22.1474 13.1333C22.0406 13.0804 21.9338 13.0275 21.8182 12.9834C21.6135 12.8953 21.4089 12.8071 21.2042 12.7278C21.1242 12.6925 21.0441 12.6573 20.964 12.622C20.6793 12.5074 20.3857 12.4017 20.1009 12.2959C20.0209 12.2695 19.9497 12.243 19.8696 12.2166C19.6561 12.1461 19.4336 12.0667 19.2112 11.9962C19.0955 11.961 18.9887 11.9257 18.8731 11.8993C18.6862 11.8464 18.4994 11.7847 18.3125 11.7406C18.1879 11.7053 18.0634 11.6789 17.9477 11.6436C17.7698 11.5996 17.5829 11.5555 17.405 11.5114C17.2804 11.485 17.1558 11.4585 17.0224 11.4233C16.8444 11.388 16.6576 11.344 16.4796 11.3087C16.4529 11.3087 16.4173 11.2999 16.3906 11.2911V12.3664C16.5419 12.3929 16.6931 12.4281 16.8355 12.4546C16.9067 12.4722 16.9868 12.481 17.0579 12.4986C17.3338 12.5603 17.6096 12.6308 17.8854 12.7014C17.9477 12.719 18.0189 12.7366 18.0812 12.7542C18.2947 12.8159 18.5083 12.8688 18.7129 12.9393C18.8019 12.9658 18.8998 13.001 18.9887 13.0275C19.1756 13.0892 19.3624 13.1509 19.5493 13.2126C19.6383 13.2478 19.7272 13.2743 19.8162 13.3095C20.0298 13.3889 20.2433 13.4682 20.4568 13.5475C20.5102 13.5652 20.5636 13.5916 20.617 13.6092C20.8572 13.7062 21.0975 13.812 21.3377 13.9089C20.7861 14.2086 20.2433 14.5171 19.7183 14.8344H21.4534L21.2576 15.1694C21.6758 14.9314 22.1118 14.7022 22.5478 14.4818L22.5122 14.4907Z" fill="#203A82"/>
<path d="M23.9981 27.2185L28.6605 19.2327H25.662H24.007H23.5177L26.0713 14.852H28.6605V11.247H16.3551V14.852H21.4178L16.7644 22.8378H20.8128H21.0619H21.9072L19.3536 27.2185H11.1855V30.8235H33.8389V27.2185H23.9981Z" stroke="white" stroke-width="4" stroke-linecap="round" stroke-linejoin="round"/>
<path d="M39.9241 15.9715L40.9473 11.9698L40.4846 11.8111C40.3067 11.7494 36.0803 10.3391 30.368 11.0267H30.3591C29.0957 5.64995 26.4709 2.29171 26.3552 2.15068L26.0527 1.77167L22.5826 4.04575L19.1125 1.77167L18.81 2.15068C18.6943 2.29171 16.0695 5.65876 14.8061 11.0443H14.7972C9.02261 10.3303 4.74286 11.7494 4.55601 11.8199L4.09333 11.9786L5.11656 15.9803L1.80664 18.4835L2.07357 18.8978C2.18034 19.0653 4.67168 22.8642 9.69883 25.8699C7.35876 31.0703 7.46553 35.4774 7.47443 35.6714L7.49222 36.1561L11.6474 36.3677L13.0799 40.246L13.5515 40.1137C13.7473 40.0609 18.1961 38.818 22.6004 34.8869C27.0047 38.818 31.4535 40.0609 31.6493 40.1137L32.1208 40.246L33.5534 36.3677L37.7086 36.1561L37.7264 35.6714C37.7264 35.4774 37.842 31.0262 35.4664 25.7994C40.4134 22.8025 42.8692 19.0653 42.9671 18.9066L43.234 18.4923L39.9241 15.9891V15.9715ZM3.23026 18.7127L6.30884 16.3945L5.35679 12.6837C6.59356 12.3488 10.1526 11.5555 14.5569 12.0844C14.548 12.1549 14.5302 12.2166 14.5213 12.2871C14.4947 12.4193 14.4769 12.5515 14.4502 12.6837C14.4235 12.8512 14.3968 13.0187 14.3701 13.1861C14.3523 13.3184 14.3345 13.4506 14.3167 13.5916C14.2989 13.7591 14.2722 13.9265 14.2544 14.1028C14.2366 14.235 14.2277 14.3673 14.2188 14.4995C14.201 14.6669 14.1921 14.8432 14.1832 15.0195C14.1832 15.1517 14.1654 15.2839 14.1565 15.4162C14.1476 15.5924 14.1387 15.7687 14.1387 15.945C14.1387 16.0684 14.1387 16.2006 14.1299 16.324C14.1299 16.5091 14.1299 16.6942 14.1299 16.8793C14.1299 16.9939 14.1299 17.1173 14.1299 17.2319C14.1299 17.4346 14.1476 17.6374 14.1565 17.8401C14.1565 17.937 14.1565 18.0428 14.1743 18.1398C14.1921 18.4306 14.2188 18.7303 14.2455 19.0212C14.2455 19.0212 14.2455 19.03 14.2455 19.0388C14.032 19.268 13.8184 19.4972 13.6138 19.7263C13.5426 19.8057 13.4803 19.885 13.418 19.9643C13.2846 20.123 13.1511 20.2816 13.0176 20.4403C12.9376 20.5372 12.8664 20.6342 12.7863 20.7312C12.6706 20.881 12.555 21.022 12.4393 21.1719C12.3592 21.2776 12.2791 21.3834 12.208 21.4892C12.1012 21.6302 11.9944 21.7801 11.8965 21.9299C11.8165 22.0445 11.7453 22.1591 11.6652 22.2648C11.5673 22.4147 11.4695 22.5557 11.3716 22.7056C11.3004 22.8201 11.2292 22.9435 11.1491 23.0581C11.0602 23.208 10.9712 23.3578 10.8822 23.5077C10.811 23.6311 10.7399 23.7456 10.6776 23.869C10.5886 24.0189 10.5085 24.1775 10.4284 24.3274C10.3662 24.4508 10.295 24.5742 10.2327 24.6976C10.1971 24.7593 10.1704 24.821 10.1348 24.8827C6.29994 22.5733 3.98656 19.7263 3.23026 18.6951V18.7127ZM36.6497 35.1425L32.7882 35.3364L31.4535 38.9326C30.2257 38.5095 26.7556 37.1433 23.3656 34.1465C23.4101 34.1024 23.4635 34.0495 23.5079 34.0055C23.5969 33.9173 23.6859 33.8292 23.7749 33.7322C23.8994 33.6088 24.024 33.4766 24.1397 33.3532C24.2287 33.2651 24.3087 33.1681 24.3977 33.08C24.5223 32.9477 24.6379 32.8155 24.7536 32.6745C24.8337 32.5864 24.9138 32.4982 24.985 32.4013C25.1095 32.2602 25.2252 32.1104 25.3409 31.9694C25.412 31.8812 25.4832 31.8019 25.5455 31.7137C25.679 31.5463 25.8124 31.37 25.9459 31.1937C25.9459 31.1937 25.9548 31.1761 25.9637 31.1673H24.6113C24.6113 31.1673 24.549 31.2466 24.5223 31.2818C24.46 31.3612 24.3977 31.4317 24.3354 31.511C24.1041 31.7931 23.8639 32.0663 23.6147 32.3396C23.5791 32.3748 23.5524 32.4189 23.5168 32.4541C23.241 32.7538 22.9652 33.0359 22.6716 33.3179C22.636 33.3532 22.6093 33.3796 22.5737 33.4149C22.5381 33.3796 22.5114 33.3532 22.4758 33.3179C22.1911 33.0359 21.9064 32.745 21.6305 32.4541C21.6039 32.4189 21.5683 32.3836 21.5416 32.3484C21.2924 32.0751 21.0522 31.7931 20.812 31.511C20.7497 31.4405 20.6963 31.37 20.634 31.2995C20.5984 31.2554 20.5628 31.2113 20.5361 31.1673H19.1837C19.1837 31.1673 19.2015 31.1937 19.2104 31.2025C19.3439 31.3788 19.4773 31.5551 19.6108 31.7314C19.6731 31.8195 19.7443 31.8988 19.8154 31.9782C19.9311 32.128 20.0557 32.269 20.1713 32.4101C20.2514 32.4982 20.3226 32.5864 20.4027 32.6745C20.5183 32.8067 20.6429 32.9389 20.7586 33.0711C20.8387 33.1593 20.9276 33.2474 21.0077 33.3444C21.1323 33.4678 21.2479 33.6 21.3725 33.7234C21.4615 33.8115 21.5505 33.8997 21.6394 33.9878C21.6839 34.0319 21.7284 34.0848 21.7818 34.1289C18.3918 37.1257 14.9217 38.4919 13.6939 38.915L12.3681 35.3188L8.50655 35.1249C8.55104 33.8644 8.82687 30.3387 10.5886 26.3723C10.6598 26.4164 10.7399 26.4516 10.811 26.4869C10.9356 26.5574 11.0691 26.6191 11.2025 26.6896C11.3093 26.7425 11.4161 26.7954 11.5228 26.8483H14.2188C14.2188 26.8483 14.1654 26.8306 14.1476 26.8218C13.9252 26.7425 13.7117 26.6544 13.4892 26.5662C13.418 26.5398 13.3558 26.5133 13.2846 26.4869C12.9999 26.3723 12.724 26.2489 12.4393 26.1167C12.377 26.0902 12.3058 26.055 12.2436 26.0197C12.03 25.9228 11.8165 25.817 11.6029 25.7024C11.5139 25.6583 11.4161 25.6055 11.3271 25.5614C11.2292 25.5085 11.1402 25.4556 11.0424 25.4115C11.0869 25.3234 11.1314 25.2353 11.1758 25.1471C11.2203 25.059 11.2648 24.9708 11.3093 24.8915C11.4161 24.6888 11.5317 24.486 11.6385 24.2833C11.6741 24.2304 11.7008 24.1687 11.7364 24.1158C11.8788 23.8602 12.03 23.6134 12.1902 23.3666C12.2258 23.3049 12.2702 23.252 12.3058 23.1903C12.4304 23.0052 12.5461 22.8201 12.6706 22.635C12.724 22.5557 12.7863 22.4764 12.8397 22.3971C12.9554 22.2296 13.071 22.0709 13.1956 21.9035C13.249 21.8241 13.3113 21.7536 13.3647 21.6743C13.507 21.4804 13.6583 21.2953 13.8095 21.1102C13.8451 21.0661 13.8718 21.0308 13.9074 20.9868C14.0765 20.784 14.2455 20.5813 14.4235 20.3874C14.8417 22.5205 15.7492 24.8562 16.6746 26.8483H17.858C16.4966 23.9572 15.6158 21.357 15.3488 19.4002C16.6301 18.1221 18.4986 16.7559 20.5806 15.5219L20.7764 15.187H19.0947C17.6266 16.1125 16.292 17.0997 15.2243 18.0516C15.2065 17.8048 15.1976 17.558 15.1887 17.3112C15.1887 17.276 15.1887 17.2407 15.1887 17.2055C15.1887 16.9587 15.1887 16.7119 15.1887 16.4651C15.1887 16.3681 15.1887 16.28 15.1887 16.183C15.1887 15.9891 15.1976 15.7952 15.2065 15.6013C15.2065 15.5043 15.2065 15.4073 15.2243 15.3104C15.2332 15.0988 15.251 14.8873 15.2687 14.6758C15.2687 14.6052 15.2776 14.5347 15.2865 14.4642C15.3132 14.1822 15.3399 13.9001 15.3844 13.6269C15.3844 13.5652 15.4022 13.4946 15.4111 13.4329C15.4378 13.2126 15.4734 13.001 15.509 12.7807C15.5268 12.6837 15.5446 12.5956 15.5624 12.4986C15.5802 12.4105 15.598 12.3223 15.6158 12.2342C15.7047 12.2518 15.7937 12.2606 15.8827 12.2783C15.9183 12.2783 15.9628 12.2959 15.9984 12.2959V11.2382C15.9984 11.2382 15.9984 11.2294 15.9984 11.2206C15.945 11.2118 15.8916 11.2029 15.8382 11.1941C16.8169 7.11311 18.6409 4.20441 19.3439 3.19076L22.5648 5.30619L25.7857 3.19076C26.4886 4.20441 28.3127 7.09549 29.2825 11.1765C29.2024 11.1853 29.1223 11.2029 29.0512 11.2206C29.0334 11.2206 29.0156 11.2206 29.0067 11.2206C29.0067 11.2206 29.0067 11.2294 29.0067 11.2382V12.2959C29.0779 12.2871 29.1579 12.2695 29.2291 12.2606C29.3181 12.243 29.416 12.2342 29.5049 12.2166C29.5227 12.3047 29.5405 12.3929 29.5583 12.4898C29.5761 12.578 29.5939 12.6749 29.6028 12.7631C29.6384 12.9834 29.674 13.2038 29.7007 13.4241C29.7096 13.4858 29.7185 13.5475 29.7274 13.618C29.763 13.9001 29.7986 14.1822 29.8253 14.4642C29.8253 14.5347 29.8342 14.5964 29.8431 14.6669C29.8608 14.8873 29.8786 15.0988 29.8875 15.3192C29.8875 15.4162 29.8964 15.5043 29.9053 15.6013C29.9142 15.7952 29.9231 15.9979 29.9231 16.1918C29.9231 16.28 29.9231 16.3681 29.9231 16.4651C29.9231 16.7119 29.9231 16.9587 29.9231 17.2143C29.9231 17.2495 29.9231 17.2848 29.9231 17.3112C29.9231 17.558 29.9053 17.8048 29.8875 18.0604C28.891 17.1878 27.6186 16.2623 26.1772 15.3633L25.6434 16.28C27.325 17.3289 28.7664 18.413 29.763 19.3914C29.496 21.4187 28.6241 24.0277 27.2894 26.8747H28.4728C29.3181 25.0237 30.2612 22.6262 30.6883 20.3786C30.8574 20.5725 31.0353 20.7752 31.1955 20.9691C31.2222 21.0044 31.2489 21.0397 31.2845 21.0749C31.4357 21.26 31.587 21.4539 31.7382 21.6478C31.7916 21.7184 31.8539 21.7977 31.9073 21.8682C32.0319 22.0269 32.1475 22.1943 32.2632 22.3618C32.3166 22.4411 32.3789 22.5205 32.4323 22.5998C32.5568 22.7849 32.6814 22.9612 32.7971 23.1463C32.8327 23.208 32.8771 23.2697 32.9127 23.3314C33.064 23.5782 33.2153 23.825 33.3665 24.0718C33.4021 24.1335 33.4288 24.1864 33.4644 24.2481C33.5712 24.442 33.6868 24.6359 33.7936 24.8386C33.8381 24.9268 33.8915 25.0149 33.936 25.1119C33.9804 25.2 34.0249 25.2793 34.0605 25.3675C33.9716 25.4204 33.8826 25.4732 33.7847 25.5173C33.6868 25.5702 33.589 25.6231 33.5 25.6672C33.2953 25.7729 33.0907 25.8787 32.8771 25.9757C32.806 26.0109 32.7437 26.0462 32.6725 26.0726C32.3967 26.2048 32.1208 26.3282 31.845 26.4428C31.7738 26.4693 31.7027 26.5045 31.6315 26.531C31.4179 26.6191 31.2044 26.6984 30.9909 26.7866C30.9108 26.813 30.8396 26.8395 30.7595 26.8747H33.4555C33.6067 26.7954 33.7669 26.7249 33.9182 26.6455C34.0427 26.5838 34.1673 26.5133 34.3008 26.4428C34.3719 26.3987 34.452 26.3635 34.5232 26.3282C36.3116 30.3211 36.5964 33.8909 36.6408 35.1513L36.6497 35.1425ZM35.0037 24.821C34.977 24.7593 34.9414 24.6976 34.9058 24.6359C34.8435 24.5125 34.7723 24.3891 34.7101 24.2657C34.63 24.1158 34.541 23.9572 34.4609 23.8073C34.3897 23.6839 34.3186 23.5605 34.2474 23.446C34.1584 23.2961 34.0694 23.1463 33.9804 23.0052C33.9093 22.8907 33.8381 22.7673 33.758 22.6527C33.6601 22.5028 33.5712 22.3618 33.4733 22.2208C33.3932 22.1062 33.322 21.9916 33.2419 21.877C33.1441 21.736 33.0373 21.5861 32.9305 21.4451C32.8505 21.3393 32.7704 21.2248 32.6903 21.119C32.5835 20.9691 32.4679 20.8281 32.3522 20.6871C32.2721 20.5901 32.2009 20.4844 32.1208 20.3874C31.9963 20.2287 31.8628 20.0789 31.7294 19.9203C31.6582 19.8409 31.5959 19.7528 31.5247 19.6735C31.329 19.4531 31.1332 19.2416 30.9286 19.03C30.9197 19.0212 30.9019 19.0036 30.893 18.9948C30.893 18.9859 30.893 18.9771 30.893 18.9683C30.9197 18.6774 30.9464 18.3866 30.9642 18.0957C30.9642 17.9987 30.9642 17.9018 30.9731 17.8048C30.982 17.6021 30.9908 17.3994 30.9997 17.1966C30.9997 17.0821 30.9997 16.9587 30.9997 16.8441C30.9997 16.659 30.9997 16.4739 30.9997 16.2976C30.9997 16.1742 30.9997 16.042 30.9909 15.9186C30.9909 15.7423 30.982 15.566 30.9731 15.3897C30.9731 15.2575 30.9553 15.1253 30.9464 15.0019C30.9375 14.8344 30.9197 14.6581 30.9108 14.4907C30.9019 14.3584 30.8841 14.2262 30.8752 14.094C30.8574 13.9265 30.8396 13.7591 30.8129 13.5828C30.7951 13.4506 30.7773 13.3184 30.7595 13.1773C30.7328 13.0099 30.7061 12.8424 30.6794 12.6749C30.6616 12.5427 30.6349 12.4105 30.6083 12.2783C30.5994 12.2166 30.5905 12.1461 30.5727 12.0844C34.9325 11.582 38.4293 12.3576 39.6571 12.6925L38.7051 16.4034L41.7837 18.7215C41.0274 19.744 38.7585 22.5293 34.9948 24.8298L35.0037 24.821Z" stroke="white" stroke-width="4" stroke-linecap="round" stroke-linejoin="round"/>
<path d="M25.3861 30.1712C25.3506 30.2241 25.3061 30.2858 25.2705 30.3387C25.1548 30.5062 25.0213 30.656 24.9057 30.8147H26.2403C26.3649 30.6384 26.4983 30.4621 26.614 30.277C26.6496 30.2241 26.6852 30.1624 26.7208 30.1095C26.8454 29.9156 26.9699 29.7217 27.0945 29.5278C27.1479 29.4397 27.2013 29.3427 27.2635 29.2546C27.3347 29.1312 27.4148 29.0078 27.486 28.8844C27.655 28.8491 27.8152 28.8138 27.9843 28.7786C28.0999 28.7521 28.2156 28.7257 28.3313 28.6993C28.5804 28.6376 28.8295 28.5759 29.0787 28.5053C29.1498 28.4877 29.221 28.4701 29.2922 28.4525C29.6125 28.3643 29.9239 28.2674 30.2443 28.1704C30.3332 28.144 30.4222 28.1087 30.5201 28.0734C30.7425 27.9941 30.965 27.9236 31.1874 27.8443C31.312 27.8002 31.4276 27.7473 31.5433 27.7032C31.7302 27.6327 31.9259 27.5534 32.1128 27.4741C32.2373 27.4212 32.3708 27.3683 32.4953 27.3066C32.5665 27.2713 32.6466 27.2449 32.7178 27.2097H29.7371C29.5413 27.2714 29.3545 27.333 29.1587 27.3859C29.0876 27.4036 29.0164 27.43 28.9541 27.4476C28.6783 27.527 28.3935 27.5975 28.1177 27.6592C28.1889 27.5181 28.2601 27.3595 28.3313 27.2097H27.139C27.0233 27.4476 26.9076 27.6856 26.792 27.9324C25.4039 28.1792 23.9714 28.3114 22.5211 28.3114C22.4588 28.3114 22.4054 28.3114 22.3432 28.3114C21.0174 28.3026 19.7006 28.1792 18.4282 27.9677C18.3036 27.7121 18.1791 27.4653 18.0634 27.2097H16.8711C16.9512 27.3771 17.0313 27.5446 17.1025 27.7032C16.8177 27.6415 16.533 27.571 16.2572 27.4917C16.1771 27.4741 16.097 27.4476 16.0169 27.4212C15.8034 27.3595 15.581 27.2978 15.3674 27.2273C15.3407 27.2273 15.314 27.2097 15.2873 27.2008H12.3066C12.4312 27.2537 12.5558 27.3154 12.6803 27.3683C12.8049 27.4212 12.9295 27.4741 13.054 27.527C13.2498 27.6063 13.4455 27.6856 13.6413 27.7561C13.757 27.8002 13.8726 27.8443 13.9883 27.8883C14.2196 27.9677 14.451 28.047 14.6823 28.1263C14.7624 28.1528 14.8514 28.188 14.9314 28.2145C15.2518 28.3114 15.5721 28.4084 15.8924 28.4965C15.9636 28.5142 16.0258 28.5318 16.097 28.5494C16.3551 28.6199 16.6042 28.6816 16.8622 28.7433C16.9779 28.7698 17.1025 28.7962 17.2181 28.8227C17.3872 28.8579 17.5473 28.8932 17.7164 28.9284C17.7876 29.0518 17.8677 29.1752 17.9477 29.3074C18.0011 29.3956 18.0545 29.4837 18.1079 29.5719C18.2325 29.7658 18.357 29.9597 18.4905 30.1536C18.5261 30.2065 18.5617 30.2594 18.5973 30.3123C18.7129 30.4886 18.8375 30.656 18.9621 30.8235H20.2967C20.181 30.6648 20.0565 30.515 19.9408 30.3563C19.9052 30.3035 19.8696 30.2506 19.8251 30.1977C19.6205 29.9068 19.4158 29.6159 19.229 29.3163C19.2023 29.2722 19.1667 29.2281 19.14 29.184C20.2611 29.3163 21.3822 29.3868 22.4766 29.3868H22.53C22.9215 29.3868 23.3219 29.378 23.7223 29.3603C23.7223 29.3603 23.7223 29.3603 23.7312 29.3603C24.5142 29.3251 25.2972 29.2722 26.0802 29.1664C26.0535 29.2105 26.0179 29.2634 25.9912 29.3074C25.8043 29.5983 25.5997 29.898 25.395 30.1801L25.3861 30.1712Z" stroke="white" stroke-width="4" stroke-linecap="round" stroke-linejoin="round"/>
<path d="M22.5122 14.4907C23.5087 14.9931 24.4608 15.5307 25.3594 16.0772L25.8933 15.1605C25.1993 14.7375 24.4697 14.3232 23.7223 13.9177C23.9625 13.812 24.2116 13.7062 24.4608 13.6092C24.5231 13.5828 24.5853 13.5652 24.6476 13.5387C24.8523 13.4594 25.0658 13.3801 25.2794 13.3007C25.3772 13.2655 25.4662 13.2302 25.5641 13.2038C25.7509 13.1421 25.9378 13.0804 26.1246 13.0187C26.2225 12.9922 26.3204 12.957 26.4093 12.9305C26.6229 12.8688 26.8364 12.8071 27.05 12.7454C27.1212 12.7278 27.1834 12.7102 27.2546 12.6925C27.5304 12.622 27.8152 12.5515 28.0999 12.4898C28.1711 12.4722 28.2423 12.4634 28.3223 12.4457C28.4469 12.4193 28.5626 12.3929 28.6871 12.3752V11.2911C28.5092 11.3263 28.3223 11.3616 28.1444 11.3968C28.0198 11.4233 27.8864 11.4497 27.7618 11.485C27.5749 11.5291 27.3881 11.5731 27.2012 11.6172C27.0767 11.6525 26.9521 11.6789 26.8275 11.7142C26.6318 11.767 26.436 11.8199 26.2492 11.8816C26.1424 11.9169 26.0268 11.9433 25.92 11.9786C25.6886 12.0491 25.4662 12.1284 25.2349 12.2078C25.1637 12.2342 25.0925 12.2518 25.0213 12.2783C24.7277 12.384 24.4341 12.4898 24.1405 12.6132C24.0604 12.6485 23.9892 12.6749 23.9091 12.7102C23.6956 12.7983 23.482 12.8865 23.2685 12.9834C23.1617 13.0275 23.0549 13.0804 22.9393 13.1333C22.8058 13.195 22.6723 13.2567 22.5389 13.3184C22.4054 13.2567 22.2809 13.195 22.1474 13.1333C22.0406 13.0804 21.9338 13.0275 21.8182 12.9834C21.6135 12.8953 21.4089 12.8071 21.2042 12.7278C21.1242 12.6925 21.0441 12.6573 20.964 12.622C20.6793 12.5074 20.3857 12.4017 20.1009 12.2959C20.0209 12.2695 19.9497 12.243 19.8696 12.2166C19.6561 12.1461 19.4336 12.0667 19.2112 11.9962C19.0955 11.961 18.9887 11.9257 18.8731 11.8993C18.6862 11.8464 18.4994 11.7847 18.3125 11.7406C18.1879 11.7053 18.0634 11.6789 17.9477 11.6436C17.7698 11.5996 17.5829 11.5555 17.405 11.5114C17.2804 11.485 17.1558 11.4585 17.0224 11.4233C16.8444 11.388 16.6576 11.344 16.4796 11.3087C16.4529 11.3087 16.4173 11.2999 16.3906 11.2911V12.3664C16.5419 12.3929 16.6931 12.4281 16.8355 12.4546C16.9067 12.4722 16.9868 12.481 17.0579 12.4986C17.3338 12.5603 17.6096 12.6308 17.8854 12.7014C17.9477 12.719 18.0189 12.7366 18.0812 12.7542C18.2947 12.8159 18.5083 12.8688 18.7129 12.9393C18.8019 12.9658 18.8998 13.001 18.9887 13.0275C19.1756 13.0892 19.3624 13.1509 19.5493 13.2126C19.6383 13.2478 19.7272 13.2743 19.8162 13.3095C20.0298 13.3889 20.2433 13.4682 20.4568 13.5475C20.5102 13.5652 20.5636 13.5916 20.617 13.6092C20.8572 13.7062 21.0975 13.812 21.3377 13.9089C20.7861 14.2086 20.2433 14.5171 19.7183 14.8344H21.4534L21.2576 15.1694C21.6758 14.9314 22.1118 14.7022 22.5478 14.4818L22.5122 14.4907Z" stroke="white" stroke-width="4" stroke-linecap="round" stroke-linejoin="round"/>
<path d="M23.9981 27.2185L28.6605 19.2327H25.662H24.007H23.5177L26.0713 14.852H28.6605V11.247H16.3551V14.852H21.4178L16.7644 22.8378H20.8128H21.0619H21.9072L19.3536 27.2185H11.1855V30.8235H33.8389V27.2185H23.9981Z" fill="#203A82"/>
<path d="M39.9241 15.9715L40.9473 11.9698L40.4846 11.8111C40.3067 11.7494 36.0803 10.3391 30.368 11.0267H30.3591C29.0957 5.64995 26.4709 2.29171 26.3552 2.15068L26.0527 1.77167L22.5826 4.04575L19.1125 1.77167L18.81 2.15068C18.6943 2.29171 16.0695 5.65876 14.8061 11.0443H14.7972C9.02261 10.3303 4.74286 11.7494 4.55601 11.8199L4.09333 11.9786L5.11656 15.9803L1.80664 18.4835L2.07357 18.8978C2.18034 19.0653 4.67168 22.8642 9.69883 25.8699C7.35876 31.0703 7.46553 35.4774 7.47443 35.6714L7.49222 36.1561L11.6474 36.3677L13.0799 40.246L13.5515 40.1137C13.7473 40.0609 18.1961 38.8181 22.6004 34.8869C27.0047 38.8181 31.4535 40.0609 31.6493 40.1137L32.1208 40.246L33.5534 36.3677L37.7086 36.1561L37.7264 35.6714C37.7264 35.4774 37.842 31.0262 35.4664 25.7994C40.4134 22.8025 42.8692 19.0653 42.9671 18.9066L43.234 18.4923L39.9241 15.9891V15.9715ZM3.23026 18.7127L6.30884 16.3945L5.35679 12.6837C6.59356 12.3488 10.1526 11.5555 14.5569 12.0844C14.548 12.1549 14.5302 12.2166 14.5213 12.2871C14.4947 12.4193 14.4769 12.5515 14.4502 12.6837C14.4235 12.8512 14.3968 13.0187 14.3701 13.1861C14.3523 13.3184 14.3345 13.4506 14.3167 13.5916C14.2989 13.7591 14.2722 13.9265 14.2544 14.1028C14.2366 14.235 14.2277 14.3673 14.2188 14.4995C14.201 14.6669 14.1921 14.8432 14.1832 15.0195C14.1832 15.1517 14.1654 15.2839 14.1565 15.4162C14.1476 15.5924 14.1387 15.7687 14.1387 15.945C14.1387 16.0684 14.1387 16.2006 14.1299 16.324C14.1299 16.5091 14.1299 16.6942 14.1299 16.8793C14.1299 16.9939 14.1299 17.1173 14.1299 17.2319C14.1299 17.4346 14.1476 17.6374 14.1565 17.8401C14.1565 17.937 14.1565 18.0428 14.1743 18.1398C14.1921 18.4306 14.2188 18.7303 14.2455 19.0212C14.2455 19.0212 14.2455 19.03 14.2455 19.0388C14.032 19.268 13.8184 19.4972 13.6138 19.7263C13.5426 19.8057 13.4803 19.885 13.418 19.9643C13.2846 20.123 13.1511 20.2816 13.0176 20.4403C12.9376 20.5373 12.8664 20.6342 12.7863 20.7312C12.6706 20.881 12.555 21.022 12.4393 21.1719C12.3592 21.2776 12.2791 21.3834 12.208 21.4892C12.1012 21.6302 11.9944 21.7801 11.8965 21.9299C11.8165 22.0445 11.7453 22.1591 11.6652 22.2648C11.5673 22.4147 11.4695 22.5557 11.3716 22.7056C11.3004 22.8201 11.2292 22.9435 11.1491 23.0581C11.0602 23.208 10.9712 23.3578 10.8822 23.5077C10.811 23.6311 10.7399 23.7456 10.6776 23.869C10.5886 24.0189 10.5085 24.1775 10.4284 24.3274C10.3662 24.4508 10.295 24.5742 10.2327 24.6976C10.1971 24.7593 10.1704 24.821 10.1348 24.8827C6.29994 22.5733 3.98656 19.7263 3.23026 18.6951V18.7127ZM36.6497 35.1425L32.7882 35.3364L31.4535 38.9326C30.2257 38.5095 26.7556 37.1433 23.3656 34.1465C23.4101 34.1024 23.4635 34.0495 23.5079 34.0055C23.5969 33.9173 23.6859 33.8292 23.7749 33.7322C23.8994 33.6088 24.024 33.4766 24.1397 33.3532C24.2287 33.2651 24.3087 33.1681 24.3977 33.08C24.5223 32.9477 24.6379 32.8155 24.7536 32.6745C24.8337 32.5864 24.9138 32.4982 24.985 32.4013C25.1095 32.2602 25.2252 32.1104 25.3409 31.9694C25.412 31.8812 25.4832 31.8019 25.5455 31.7137C25.679 31.5463 25.8124 31.37 25.9459 31.1937C25.9459 31.1937 25.9548 31.1761 25.9637 31.1673H24.6112C24.6112 31.1673 24.549 31.2466 24.5223 31.2818C24.46 31.3612 24.3977 31.4317 24.3354 31.511C24.1041 31.7931 23.8639 32.0663 23.6147 32.3396C23.5791 32.3748 23.5524 32.4189 23.5168 32.4541C23.241 32.7538 22.9652 33.0359 22.6716 33.3179C22.636 33.3532 22.6093 33.3796 22.5737 33.4149C22.5381 33.3796 22.5114 33.3532 22.4758 33.3179C22.1911 33.0359 21.9064 32.745 21.6305 32.4541C21.6039 32.4189 21.5683 32.3836 21.5416 32.3484C21.2924 32.0751 21.0522 31.7931 20.812 31.511C20.7497 31.4405 20.6963 31.37 20.634 31.2995C20.5984 31.2554 20.5628 31.2113 20.5361 31.1673H19.1837C19.1837 31.1673 19.2015 31.1937 19.2104 31.2025C19.3439 31.3788 19.4773 31.5551 19.6108 31.7314C19.6731 31.8195 19.7443 31.8988 19.8154 31.9782C19.9311 32.128 20.0557 32.269 20.1713 32.4101C20.2514 32.4982 20.3226 32.5864 20.4027 32.6745C20.5183 32.8067 20.6429 32.9389 20.7586 33.0711C20.8387 33.1593 20.9276 33.2474 21.0077 33.3444C21.1323 33.4678 21.2479 33.6 21.3725 33.7234C21.4615 33.8115 21.5505 33.8997 21.6394 33.9878C21.6839 34.0319 21.7284 34.0848 21.7818 34.1289C18.3918 37.1257 14.9217 38.4919 13.6939 38.915L12.3681 35.3188L8.50655 35.1249C8.55104 33.8644 8.82687 30.3387 10.5886 26.3723C10.6598 26.4164 10.7399 26.4516 10.811 26.4869C10.9356 26.5574 11.0691 26.6191 11.2025 26.6896C11.3093 26.7425 11.4161 26.7954 11.5228 26.8483H14.2188C14.2188 26.8483 14.1654 26.8306 14.1476 26.8218C13.9252 26.7425 13.7117 26.6544 13.4892 26.5662C13.418 26.5398 13.3558 26.5133 13.2846 26.4869C12.9999 26.3723 12.724 26.2489 12.4393 26.1167C12.377 26.0902 12.3058 26.055 12.2436 26.0197C12.03 25.9228 11.8165 25.817 11.6029 25.7024C11.5139 25.6583 11.4161 25.6055 11.3271 25.5614C11.2292 25.5085 11.1402 25.4556 11.0424 25.4115C11.0869 25.3234 11.1314 25.2353 11.1758 25.1471C11.2203 25.059 11.2648 24.9708 11.3093 24.8915C11.4161 24.6888 11.5317 24.486 11.6385 24.2833C11.6741 24.2304 11.7008 24.1687 11.7364 24.1158C11.8788 23.8602 12.03 23.6134 12.1902 23.3666C12.2258 23.3049 12.2702 23.252 12.3058 23.1903C12.4304 23.0052 12.5461 22.8201 12.6706 22.635C12.724 22.5557 12.7863 22.4764 12.8397 22.3971C12.9554 22.2296 13.071 22.0709 13.1956 21.9035C13.249 21.8241 13.3113 21.7536 13.3647 21.6743C13.507 21.4804 13.6583 21.2953 13.8095 21.1102C13.8451 21.0661 13.8718 21.0308 13.9074 20.9868C14.0765 20.784 14.2455 20.5813 14.4235 20.3874C14.8417 22.5205 15.7492 24.8562 16.6746 26.8483H17.858C16.4966 23.9572 15.6158 21.357 15.3488 19.4002C16.6301 18.1221 18.4986 16.7559 20.5806 15.5219L20.7764 15.187H19.0947C17.6266 16.1125 16.292 17.0997 15.2243 18.0516C15.2065 17.8048 15.1976 17.558 15.1887 17.3112C15.1887 17.276 15.1887 17.2407 15.1887 17.2055C15.1887 16.9587 15.1887 16.7119 15.1887 16.4651C15.1887 16.3681 15.1887 16.28 15.1887 16.183C15.1887 15.9891 15.1976 15.7952 15.2065 15.6013C15.2065 15.5043 15.2065 15.4073 15.2243 15.3104C15.2332 15.0988 15.251 14.8873 15.2687 14.6758C15.2687 14.6052 15.2776 14.5347 15.2865 14.4642C15.3132 14.1822 15.3399 13.9001 15.3844 13.6269C15.3844 13.5652 15.4022 13.4946 15.4111 13.4329C15.4378 13.2126 15.4734 13.001 15.509 12.7807C15.5268 12.6837 15.5446 12.5956 15.5624 12.4986C15.5802 12.4105 15.598 12.3223 15.6158 12.2342C15.7047 12.2518 15.7937 12.2606 15.8827 12.2783C15.9183 12.2783 15.9628 12.2959 15.9984 12.2959V11.2382C15.9984 11.2382 15.9984 11.2294 15.9984 11.2206C15.945 11.2118 15.8916 11.2029 15.8382 11.1941C16.8169 7.11311 18.6409 4.20441 19.3439 3.19076L22.5648 5.30619L25.7857 3.19076C26.4886 4.20441 28.3127 7.09549 29.2825 11.1765C29.2024 11.1853 29.1223 11.2029 29.0512 11.2206C29.0334 11.2206 29.0156 11.2206 29.0067 11.2206C29.0067 11.2206 29.0067 11.2294 29.0067 11.2382V12.2959C29.0779 12.2871 29.1579 12.2695 29.2291 12.2606C29.3181 12.243 29.416 12.2342 29.5049 12.2166C29.5227 12.3047 29.5405 12.3929 29.5583 12.4898C29.5761 12.578 29.5939 12.6749 29.6028 12.7631C29.6384 12.9834 29.674 13.2038 29.7007 13.4241C29.7096 13.4858 29.7185 13.5475 29.7274 13.618C29.763 13.9001 29.7986 14.1822 29.8253 14.4642C29.8253 14.5347 29.8342 14.5964 29.8431 14.6669C29.8608 14.8873 29.8786 15.0988 29.8875 15.3192C29.8875 15.4162 29.8964 15.5043 29.9053 15.6013C29.9142 15.7952 29.9231 15.9979 29.9231 16.1918C29.9231 16.28 29.9231 16.3681 29.9231 16.4651C29.9231 16.7119 29.9231 16.9587 29.9231 17.2143C29.9231 17.2495 29.9231 17.2848 29.9231 17.3112C29.9231 17.558 29.9053 17.8048 29.8875 18.0604C28.891 17.1878 27.6186 16.2623 26.1772 15.3633L25.6434 16.28C27.325 17.3289 28.7664 18.413 29.763 19.3914C29.496 21.4187 28.6241 24.0277 27.2894 26.8747H28.4728C29.3181 25.0237 30.2612 22.6262 30.6883 20.3786C30.8574 20.5725 31.0353 20.7752 31.1955 20.9691C31.2222 21.0044 31.2489 21.0397 31.2845 21.0749C31.4357 21.26 31.587 21.4539 31.7382 21.6478C31.7916 21.7184 31.8539 21.7977 31.9073 21.8682C32.0319 22.0269 32.1475 22.1943 32.2632 22.3618C32.3166 22.4411 32.3789 22.5205 32.4323 22.5998C32.5568 22.7849 32.6814 22.9612 32.7971 23.1463C32.8327 23.208 32.8771 23.2697 32.9127 23.3314C33.064 23.5782 33.2153 23.825 33.3665 24.0718C33.4021 24.1335 33.4288 24.1864 33.4644 24.2481C33.5712 24.442 33.6868 24.6359 33.7936 24.8386C33.8381 24.9268 33.8915 25.0149 33.936 25.1119C33.9804 25.2 34.0249 25.2793 34.0605 25.3675C33.9715 25.4204 33.8826 25.4732 33.7847 25.5173C33.6868 25.5702 33.589 25.6231 33.5 25.6672C33.2953 25.7729 33.0907 25.8787 32.8771 25.9757C32.806 26.0109 32.7437 26.0462 32.6725 26.0726C32.3967 26.2048 32.1208 26.3282 31.845 26.4428C31.7738 26.4693 31.7027 26.5045 31.6315 26.531C31.4179 26.6191 31.2044 26.6984 30.9909 26.7866C30.9108 26.813 30.8396 26.8395 30.7595 26.8747H33.4555C33.6067 26.7954 33.7669 26.7249 33.9182 26.6455C34.0427 26.5838 34.1673 26.5133 34.3008 26.4428C34.3719 26.3987 34.452 26.3635 34.5232 26.3282C36.3116 30.3211 36.5964 33.8909 36.6408 35.1513L36.6497 35.1425ZM35.0037 24.821C34.977 24.7593 34.9414 24.6976 34.9058 24.6359C34.8435 24.5125 34.7723 24.3891 34.7101 24.2657C34.63 24.1158 34.541 23.9572 34.4609 23.8073C34.3897 23.6839 34.3186 23.5605 34.2474 23.446C34.1584 23.2961 34.0694 23.1463 33.9804 23.0052C33.9093 22.8907 33.8381 22.7673 33.758 22.6527C33.6601 22.5028 33.5712 22.3618 33.4733 22.2208C33.3932 22.1062 33.322 21.9916 33.2419 21.877C33.1441 21.736 33.0373 21.5861 32.9305 21.4451C32.8505 21.3393 32.7704 21.2248 32.6903 21.119C32.5835 20.9691 32.4679 20.8281 32.3522 20.6871C32.2721 20.5901 32.2009 20.4844 32.1208 20.3874C31.9963 20.2287 31.8628 20.0789 31.7294 19.9202C31.6582 19.8409 31.5959 19.7528 31.5247 19.6735C31.329 19.4531 31.1332 19.2416 30.9286 19.03C30.9197 19.0212 30.9019 19.0036 30.893 18.9948C30.893 18.9859 30.893 18.9771 30.893 18.9683C30.9197 18.6774 30.9464 18.3866 30.9642 18.0957C30.9642 17.9987 30.9642 17.9018 30.9731 17.8048C30.982 17.6021 30.9908 17.3994 30.9997 17.1966C30.9997 17.0821 30.9997 16.9587 30.9997 16.8441C30.9997 16.659 30.9997 16.4739 30.9997 16.2976C30.9997 16.1742 30.9997 16.042 30.9909 15.9186C30.9909 15.7423 30.982 15.566 30.9731 15.3897C30.9731 15.2575 30.9553 15.1253 30.9464 15.0019C30.9375 14.8344 30.9197 14.6581 30.9108 14.4907C30.9019 14.3584 30.8841 14.2262 30.8752 14.094C30.8574 13.9265 30.8396 13.7591 30.8129 13.5828C30.7951 13.4506 30.7773 13.3184 30.7595 13.1773C30.7328 13.0099 30.7061 12.8424 30.6794 12.6749C30.6616 12.5427 30.6349 12.4105 30.6083 12.2783C30.5994 12.2166 30.5905 12.1461 30.5727 12.0844C34.9325 11.582 38.4293 12.3576 39.6571 12.6925L38.7051 16.4034L41.7837 18.7215C41.0274 19.744 38.7585 22.5293 34.9948 24.8298L35.0037 24.821Z" fill="#203A82"/>
<path d="M25.3861 30.1712C25.3506 30.2241 25.3061 30.2858 25.2705 30.3387C25.1548 30.5062 25.0213 30.656 24.9057 30.8147H26.2403C26.3649 30.6384 26.4984 30.4621 26.614 30.277C26.6496 30.2241 26.6852 30.1624 26.7208 30.1095C26.8454 29.9156 26.9699 29.7217 27.0945 29.5278C27.1479 29.4397 27.2013 29.3427 27.2635 29.2546C27.3347 29.1312 27.4148 29.0078 27.486 28.8844C27.655 28.8491 27.8152 28.8138 27.9843 28.7786C28.0999 28.7521 28.2156 28.7257 28.3313 28.6993C28.5804 28.6376 28.8295 28.5759 29.0787 28.5053C29.1498 28.4877 29.221 28.4701 29.2922 28.4525C29.6125 28.3643 29.9239 28.2674 30.2443 28.1704C30.3332 28.144 30.4222 28.1087 30.5201 28.0734C30.7425 27.9941 30.965 27.9236 31.1874 27.8443C31.312 27.8002 31.4276 27.7473 31.5433 27.7032C31.7302 27.6327 31.9259 27.5534 32.1128 27.4741C32.2373 27.4212 32.3708 27.3683 32.4953 27.3066C32.5665 27.2713 32.6466 27.2449 32.7178 27.2097H29.7371C29.5413 27.2714 29.3545 27.333 29.1587 27.3859C29.0876 27.4036 29.0164 27.43 28.9541 27.4476C28.6783 27.527 28.3935 27.5975 28.1177 27.6592C28.1889 27.5181 28.2601 27.3595 28.3313 27.2097H27.139C27.0233 27.4476 26.9076 27.6856 26.792 27.9324C25.4039 28.1792 23.9714 28.3114 22.5211 28.3114C22.4588 28.3114 22.4054 28.3114 22.3432 28.3114C21.0174 28.3026 19.7006 28.1792 18.4282 27.9677C18.3036 27.7121 18.1791 27.4653 18.0634 27.2097H16.8711C16.9512 27.3771 17.0313 27.5446 17.1025 27.7032C16.8177 27.6415 16.533 27.571 16.2572 27.4917C16.1771 27.4741 16.097 27.4476 16.0169 27.4212C15.8034 27.3595 15.581 27.2978 15.3674 27.2273C15.3407 27.2273 15.314 27.2097 15.2873 27.2008H12.3066C12.4312 27.2537 12.5558 27.3154 12.6803 27.3683C12.8049 27.4212 12.9295 27.4741 13.054 27.527C13.2498 27.6063 13.4455 27.6856 13.6413 27.7561C13.757 27.8002 13.8726 27.8443 13.9883 27.8883C14.2196 27.9677 14.451 28.047 14.6823 28.1263C14.7624 28.1528 14.8514 28.188 14.9314 28.2145C15.2518 28.3114 15.5721 28.4084 15.8924 28.4965C15.9636 28.5142 16.0258 28.5318 16.097 28.5494C16.3551 28.6199 16.6042 28.6816 16.8622 28.7433C16.9779 28.7698 17.1025 28.7962 17.2181 28.8227C17.3872 28.8579 17.5473 28.8932 17.7164 28.9284C17.7876 29.0518 17.8677 29.1752 17.9477 29.3074C18.0011 29.3956 18.0545 29.4837 18.1079 29.5719C18.2325 29.7658 18.357 29.9597 18.4905 30.1536C18.5261 30.2065 18.5617 30.2594 18.5973 30.3123C18.7129 30.4886 18.8375 30.656 18.9621 30.8235H20.2967C20.181 30.6648 20.0565 30.515 19.9408 30.3563C19.9052 30.3035 19.8696 30.2506 19.8251 30.1977C19.6205 29.9068 19.4158 29.6159 19.229 29.3163C19.2023 29.2722 19.1667 29.2281 19.14 29.184C20.2611 29.3163 21.3822 29.3868 22.4766 29.3868H22.53C22.9215 29.3868 23.3219 29.378 23.7223 29.3603C23.7223 29.3603 23.7223 29.3603 23.7312 29.3603C24.5142 29.3251 25.2972 29.2722 26.0802 29.1664C26.0535 29.2105 26.0179 29.2634 25.9912 29.3074C25.8043 29.5983 25.5997 29.898 25.395 30.1801L25.3861 30.1712Z" fill="#203A82"/>
<path d="M22.5122 14.4907C23.5087 14.9931 24.4608 15.5307 25.3594 16.0772L25.8933 15.1605C25.1993 14.7375 24.4697 14.3232 23.7223 13.9177C23.9625 13.812 24.2116 13.7062 24.4608 13.6092C24.5231 13.5828 24.5853 13.5652 24.6476 13.5387C24.8523 13.4594 25.0658 13.3801 25.2794 13.3007C25.3772 13.2655 25.4662 13.2302 25.5641 13.2038C25.7509 13.1421 25.9378 13.0804 26.1246 13.0187C26.2225 12.9922 26.3204 12.957 26.4093 12.9305C26.6229 12.8688 26.8364 12.8071 27.05 12.7454C27.1212 12.7278 27.1834 12.7102 27.2546 12.6925C27.5304 12.622 27.8152 12.5515 28.0999 12.4898C28.1711 12.4722 28.2423 12.4634 28.3223 12.4457C28.4469 12.4193 28.5626 12.3929 28.6871 12.3752V11.2911C28.5092 11.3263 28.3223 11.3616 28.1444 11.3968C28.0198 11.4233 27.8864 11.4497 27.7618 11.485C27.5749 11.5291 27.3881 11.5731 27.2012 11.6172C27.0767 11.6525 26.9521 11.6789 26.8275 11.7142C26.6318 11.767 26.436 11.8199 26.2492 11.8816C26.1424 11.9169 26.0268 11.9433 25.92 11.9786C25.6886 12.0491 25.4662 12.1284 25.2349 12.2078C25.1637 12.2342 25.0925 12.2518 25.0213 12.2783C24.7277 12.384 24.4341 12.4898 24.1405 12.6132C24.0604 12.6485 23.9892 12.6749 23.9091 12.7102C23.6956 12.7983 23.482 12.8865 23.2685 12.9834C23.1617 13.0275 23.0549 13.0804 22.9393 13.1333C22.8058 13.195 22.6723 13.2567 22.5389 13.3184C22.4054 13.2567 22.2809 13.195 22.1474 13.1333C22.0406 13.0804 21.9338 13.0275 21.8182 12.9834C21.6135 12.8953 21.4089 12.8071 21.2042 12.7278C21.1242 12.6925 21.0441 12.6573 20.964 12.622C20.6793 12.5074 20.3857 12.4017 20.1009 12.2959C20.0209 12.2695 19.9497 12.243 19.8696 12.2166C19.6561 12.1461 19.4336 12.0667 19.2112 11.9962C19.0955 11.961 18.9887 11.9257 18.8731 11.8993C18.6862 11.8464 18.4994 11.7847 18.3125 11.7406C18.1879 11.7053 18.0634 11.6789 17.9477 11.6436C17.7698 11.5996 17.5829 11.5555 17.405 11.5114C17.2804 11.485 17.1558 11.4585 17.0224 11.4233C16.8444 11.388 16.6576 11.344 16.4796 11.3087C16.4529 11.3087 16.4173 11.2999 16.3906 11.2911V12.3664C16.5419 12.3929 16.6931 12.4281 16.8355 12.4546C16.9067 12.4722 16.9868 12.481 17.0579 12.4986C17.3338 12.5603 17.6096 12.6308 17.8854 12.7014C17.9477 12.719 18.0189 12.7366 18.0812 12.7542C18.2947 12.8159 18.5083 12.8688 18.7129 12.9393C18.8019 12.9658 18.8998 13.001 18.9887 13.0275C19.1756 13.0892 19.3624 13.1509 19.5493 13.2126C19.6383 13.2478 19.7272 13.2743 19.8162 13.3095C20.0298 13.3889 20.2433 13.4682 20.4568 13.5475C20.5102 13.5652 20.5636 13.5916 20.617 13.6092C20.8572 13.7062 21.0975 13.812 21.3377 13.9089C20.7861 14.2086 20.2433 14.5171 19.7183 14.8344H21.4534L21.2576 15.1694C21.6758 14.9314 22.1118 14.7022 22.5478 14.4818L22.5122 14.4907Z" fill="#203A82"/>
<path d="M55.3781 22.732C55.8764 23.9043 56.5348 24.9444 57.3445 25.8523C58.6969 25.0414 60.343 23.8691 61.3395 22.97L62.4784 23.9043C62.4072 24.0101 62.2471 24.0277 62.0869 24.0101C61.0548 24.8034 59.4443 25.8346 58.1097 26.6279C59.5155 27.906 61.3217 28.8227 63.4482 29.281C63.1991 29.5631 62.8788 30.1096 62.7008 30.4974C58.5456 29.4044 55.6895 26.769 54.1769 22.732H51.4809V28.3908C53.0113 28.1087 54.7108 27.7826 56.3479 27.4565L56.4013 28.5935C53.563 29.2017 50.5289 29.8275 48.6604 30.1977C48.6426 30.3564 48.5358 30.4621 48.429 30.5062L47.8952 29.0254C48.5714 28.902 49.3544 28.7786 50.2531 28.62V22.7408H47.041V21.4804H50.2531V12.437H61.4552V13.6092H51.4809V15.4514H60.9035V16.5885H51.4809V18.4307H60.9035V19.5677H51.4809V21.4716H63.1813V22.732H55.387H55.3781Z" stroke="white" stroke-width="4" stroke-linecap="round" stroke-linejoin="round"/>
<path d="M55.3781 22.732C55.8764 23.9043 56.5348 24.9444 57.3445 25.8523C58.6969 25.0414 60.343 23.8691 61.3395 22.97L62.4784 23.9043C62.4072 24.0101 62.2471 24.0277 62.0869 24.0101C61.0548 24.8034 59.4443 25.8346 58.1097 26.6279C59.5155 27.906 61.3217 28.8227 63.4482 29.281C63.1991 29.5631 62.8788 30.1096 62.7008 30.4974C58.5456 29.4044 55.6895 26.769 54.1769 22.732H51.4809V28.3908C53.0113 28.1087 54.7108 27.7826 56.3479 27.4565L56.4013 28.5935C53.563 29.2017 50.5289 29.8275 48.6604 30.1977C48.6426 30.3564 48.5358 30.4621 48.429 30.5062L47.8952 29.0254C48.5714 28.902 49.3544 28.7786 50.2531 28.62V22.7408H47.041V21.4804H50.2531V12.437H61.4552V13.6092H51.4809V15.4514H60.9035V16.5885H51.4809V18.4307H60.9035V19.5677H51.4809V21.4716H63.1813V22.732H55.387H55.3781Z" fill="#203A82"/>
<path d="M55.3781 22.732C55.8764 23.9043 56.5348 24.9444 57.3445 25.8523C58.6969 25.0414 60.343 23.8691 61.3395 22.97L62.4784 23.9043C62.4072 24.0101 62.2471 24.0277 62.0869 24.0101C61.0548 24.8034 59.4443 25.8346 58.1097 26.6279C59.5155 27.906 61.3217 28.8227 63.4482 29.281C63.1991 29.5631 62.8788 30.1096 62.7008 30.4974C58.5456 29.4044 55.6895 26.769 54.1769 22.732H51.4809V28.3908C53.0113 28.1087 54.7108 27.7826 56.3479 27.4565L56.4013 28.5935C53.563 29.2017 50.5289 29.8275 48.6604 30.1977C48.6426 30.3564 48.5358 30.4621 48.429 30.5062L47.8952 29.0254C48.5714 28.902 49.3544 28.7786 50.2531 28.62V22.7408H47.041V21.4804H50.2531V12.437H61.4552V13.6092H51.4809V15.4514H60.9035V16.5885H51.4809V18.4307H60.9035V19.5677H51.4809V21.4716H63.1813V22.732H55.387H55.3781Z" stroke="#203A82" stroke-width="0.5"/>
<path d="M81.2531 19.2415L81.9116 19.3209C81.6802 20.3521 80.7727 23.0493 80.1498 24.2921C79.3846 24.0894 79.2779 24.0101 79.1711 23.9484C79.5626 23.0934 80.0253 21.7977 80.3812 20.5637H78.0233V28.7169C78.0233 30.3563 77.4005 30.4004 74.5087 30.4004C74.4553 30.0126 74.2774 29.4485 74.0994 29.043C74.8113 29.0871 75.4519 29.1047 75.9057 29.1047C76.7242 29.1047 76.831 29.1047 76.831 28.6816V20.5725H73.619V21.022H70.229V23.2961H73.6368V24.5565H70.229V27.5181L74.0105 26.91L74.0461 28.0646C70.9942 28.6552 67.7643 29.2193 65.7891 29.5895C65.7535 29.7482 65.6467 29.8363 65.5221 29.8715L65.1484 28.2938C66.1984 28.1528 67.5775 27.9324 69.0723 27.7032V24.5565H65.7891V23.2961H69.0723V21.022H65.7535V12.6485H73.619V19.2768H78.7529C77.7742 18.2015 76.1993 16.8617 74.7935 16.0067L75.5765 15.1517C76.2349 15.5395 76.9289 16.0243 77.5962 16.5267C78.3436 15.8128 79.1266 14.8432 79.7227 13.9089H74.1172V12.6749H80.6303L80.8616 12.5956L81.7692 13.2478C81.7158 13.3272 81.609 13.3889 81.5201 13.4329C80.7905 14.6493 79.5715 16.1742 78.4148 17.2231C79.0198 17.7519 79.5359 18.2808 79.9096 18.7215L79.4647 19.268H80.9951L81.2442 19.2504L81.2531 19.2415ZM66.7856 13.7855V16.2623H69.1257V13.7855H66.7856ZM66.7856 17.3553V19.8674H69.1257V17.3553H66.7856ZM72.5513 16.2623V13.7855H70.1756V16.2623H72.5513ZM72.5513 19.8762V17.3641H70.1756V19.8762H72.5513Z" stroke="white" stroke-width="4" stroke-linecap="round" stroke-linejoin="round"/>
<path d="M81.2531 19.2415L81.9116 19.3209C81.6802 20.3521 80.7727 23.0493 80.1498 24.2921C79.3846 24.0894 79.2779 24.0101 79.1711 23.9484C79.5626 23.0934 80.0253 21.7977 80.3812 20.5637H78.0233V28.7169C78.0233 30.3563 77.4005 30.4004 74.5087 30.4004C74.4553 30.0126 74.2774 29.4485 74.0994 29.043C74.8113 29.0871 75.4519 29.1047 75.9057 29.1047C76.7242 29.1047 76.831 29.1047 76.831 28.6816V20.5725H73.619V21.022H70.229V23.2961H73.6368V24.5565H70.229V27.5181L74.0105 26.91L74.0461 28.0646C70.9942 28.6552 67.7643 29.2193 65.7891 29.5895C65.7535 29.7481 65.6467 29.8363 65.5221 29.8715L65.1484 28.2938C66.1984 28.1528 67.5775 27.9324 69.0723 27.7032V24.5565H65.7891V23.2961H69.0723V21.022H65.7535V12.6485H73.619V19.2768H78.7529C77.7742 18.2015 76.1993 16.8617 74.7935 16.0067L75.5765 15.1517C76.2349 15.5395 76.9289 16.0243 77.5962 16.5267C78.3436 15.8128 79.1266 14.8432 79.7227 13.9089H74.1172V12.6749H80.6303L80.8616 12.5956L81.7692 13.2478C81.7158 13.3272 81.609 13.3889 81.5201 13.4329C80.7905 14.6493 79.5715 16.1742 78.4148 17.2231C79.0198 17.7519 79.5359 18.2808 79.9096 18.7215L79.4647 19.268H80.9951L81.2442 19.2504L81.2531 19.2415ZM66.7856 13.7855V16.2623H69.1257V13.7855H66.7856ZM66.7856 17.3553V19.8674H69.1257V17.3553H66.7856ZM72.5513 16.2623V13.7855H70.1756V16.2623H72.5513ZM72.5513 19.8762V17.3641H70.1756V19.8762H72.5513Z" fill="#203A82"/>
<path d="M81.2531 19.2415L81.9116 19.3209C81.6802 20.3521 80.7727 23.0493 80.1498 24.2921C79.3846 24.0894 79.2779 24.0101 79.1711 23.9484C79.5626 23.0934 80.0253 21.7977 80.3812 20.5637H78.0233V28.7169C78.0233 30.3563 77.4005 30.4004 74.5087 30.4004C74.4553 30.0126 74.2774 29.4485 74.0994 29.043C74.8113 29.0871 75.4519 29.1047 75.9057 29.1047C76.7242 29.1047 76.831 29.1047 76.831 28.6816V20.5725H73.619V21.022H70.229V23.2961H73.6368V24.5565H70.229V27.5181L74.0105 26.91L74.0461 28.0646C70.9942 28.6552 67.7643 29.2193 65.7891 29.5895C65.7535 29.7482 65.6467 29.8363 65.5221 29.8715L65.1484 28.2938C66.1984 28.1528 67.5775 27.9324 69.0723 27.7032V24.5565H65.7891V23.2961H69.0723V21.022H65.7535V12.6485H73.619V19.2768H78.7529C77.7742 18.2015 76.1993 16.8617 74.7935 16.0067L75.5765 15.1517C76.2349 15.5395 76.9289 16.0243 77.5962 16.5267C78.3436 15.8128 79.1266 14.8432 79.7227 13.9089H74.1172V12.6749H80.6303L80.8616 12.5956L81.7692 13.2478C81.7158 13.3272 81.609 13.3889 81.5201 13.4329C80.7905 14.6493 79.5715 16.1742 78.4148 17.2231C79.0198 17.7519 79.5359 18.2808 79.9096 18.7215L79.4647 19.268H80.9951L81.2442 19.2504L81.2531 19.2415ZM66.7856 13.7855V16.2623H69.1257V13.7855H66.7856ZM66.7856 17.3553V19.8674H69.1257V17.3553H66.7856ZM72.5513 16.2623V13.7855H70.1756V16.2623H72.5513ZM72.5513 19.8762V17.3641H70.1756V19.8762H72.5513Z" stroke="#203A82" stroke-width="0.5"/>
<path d="M89.2973 26.1431C89.2262 26.2841 89.0838 26.3282 88.9236 26.3018C87.9627 27.5358 86.1565 29.14 84.6795 30.1536C84.4303 29.8715 84.0033 29.4661 83.7363 29.2369C85.2311 28.3026 86.9662 26.8042 87.8381 25.5085L89.2973 26.1343V26.1431ZM85.9785 23.3842H99.8944V24.6182H92.456V30.4357H91.2103V24.6182H85.9874V25.2088H84.7951V13.4065L86.3433 13.5299C86.3255 13.6709 86.2366 13.7767 85.9874 13.7943V23.3842H85.9785ZM97.7679 12.3929V21.7624H87.936V12.3929H97.7679ZM96.5934 15.187V13.4241H89.0838V15.187H96.5934ZM96.5934 17.9458V16.183H89.0838V17.9458H96.5934ZM96.5934 20.7223V18.9419H89.0838V20.7223H96.5934ZM98.8445 30.18C97.9369 29.1223 96.0595 27.4036 94.5825 26.2048L95.5613 25.4732C97.0205 26.6103 98.9157 28.2497 99.8766 29.3251L98.8445 30.18Z" stroke="white" stroke-width="4" stroke-linecap="round" stroke-linejoin="round"/>
<path d="M89.2973 26.1431C89.2262 26.2841 89.0838 26.3282 88.9236 26.3018C87.9627 27.5358 86.1565 29.14 84.6795 30.1536C84.4303 29.8715 84.0033 29.4661 83.7363 29.2369C85.2311 28.3026 86.9662 26.8042 87.8381 25.5085L89.2973 26.1343V26.1431ZM85.9785 23.3842H99.8944V24.6182H92.456V30.4357H91.2103V24.6182H85.9874V25.2088H84.7951V13.4065L86.3433 13.5299C86.3255 13.6709 86.2366 13.7767 85.9874 13.7943V23.3842H85.9785ZM97.7679 12.3929V21.7624H87.936V12.3929H97.7679ZM96.5934 15.187V13.4241H89.0838V15.187H96.5934ZM96.5934 17.9458V16.183H89.0838V17.9458H96.5934ZM96.5934 20.7223V18.9419H89.0838V20.7223H96.5934ZM98.8445 30.18C97.9369 29.1223 96.0595 27.4036 94.5825 26.2048L95.5613 25.4732C97.0205 26.6103 98.9157 28.2497 99.8766 29.3251L98.8445 30.18Z" fill="#203A82"/>
<path d="M89.2973 26.1431C89.2262 26.2841 89.0838 26.3282 88.9236 26.3018C87.9627 27.5358 86.1565 29.14 84.6795 30.1536C84.4303 29.8715 84.0033 29.4661 83.7363 29.2369C85.2311 28.3026 86.9662 26.8042 87.8381 25.5085L89.2973 26.1343V26.1431ZM85.9785 23.3842H99.8944V24.6182H92.456V30.4357H91.2103V24.6182H85.9874V25.2088H84.7951V13.4065L86.3433 13.5299C86.3255 13.6709 86.2366 13.7767 85.9874 13.7943V23.3842H85.9785ZM97.7679 12.3929V21.7624H87.936V12.3929H97.7679ZM96.5934 15.187V13.4241H89.0838V15.187H96.5934ZM96.5934 17.9458V16.183H89.0838V17.9458H96.5934ZM96.5934 20.7223V18.9419H89.0838V20.7223H96.5934ZM98.8445 30.18C97.9369 29.1223 96.0595 27.4036 94.5825 26.2048L95.5613 25.4732C97.0205 26.6103 98.9157 28.2497 99.8766 29.3251L98.8445 30.18Z" stroke="#203A82" stroke-width="0.5"/>
<path d="M110.483 22.732C110.981 23.9043 111.639 24.9444 112.449 25.8523C113.801 25.0414 115.448 23.8691 116.444 22.97L117.583 23.9043C117.512 24.0101 117.352 24.0277 117.192 24.0101C116.159 24.8034 114.549 25.8346 113.214 26.6279C114.62 27.906 116.426 28.8227 118.544 29.281C118.295 29.5631 117.974 30.1096 117.797 30.4974C113.641 29.4044 110.785 26.769 109.273 22.732H106.577V28.3908C108.107 28.1087 109.806 27.7826 111.444 27.4565L111.497 28.5935C108.659 29.2017 105.625 29.8275 103.756 30.1977C103.738 30.3564 103.632 30.4621 103.525 30.5062L102.991 29.0254C103.667 28.902 104.45 28.7786 105.349 28.62V22.7408H102.137V21.4804H105.349V12.437H116.551V13.6092H106.577V15.4514H115.999V16.5885H106.577V18.4307H115.999V19.5677H106.577V21.4716H118.277V22.732H110.483Z" stroke="white" stroke-width="4" stroke-linecap="round" stroke-linejoin="round"/>
<path d="M110.483 22.732C110.981 23.9043 111.639 24.9444 112.449 25.8523C113.801 25.0414 115.448 23.8691 116.444 22.97L117.583 23.9043C117.512 24.0101 117.352 24.0277 117.192 24.0101C116.159 24.8034 114.549 25.8346 113.214 26.6279C114.62 27.906 116.426 28.8227 118.544 29.281C118.295 29.5631 117.974 30.1096 117.797 30.4974C113.641 29.4044 110.785 26.769 109.273 22.732H106.577V28.3908C108.107 28.1087 109.806 27.7826 111.444 27.4565L111.497 28.5935C108.659 29.2017 105.625 29.8275 103.756 30.1977C103.738 30.3564 103.632 30.4621 103.525 30.5062L102.991 29.0254C103.667 28.902 104.45 28.7786 105.349 28.62V22.7408H102.137V21.4804H105.349V12.437H116.551V13.6092H106.577V15.4514H115.999V16.5885H106.577V18.4307H115.999V19.5677H106.577V21.4716H118.277V22.732H110.483Z" fill="#203A82"/>
<path d="M110.483 22.732C110.981 23.9043 111.639 24.9444 112.449 25.8523C113.801 25.0414 115.448 23.8691 116.444 22.97L117.583 23.9043C117.512 24.0101 117.352 24.0277 117.192 24.0101C116.159 24.8034 114.549 25.8346 113.214 26.6279C114.62 27.906 116.426 28.8227 118.544 29.281C118.295 29.5631 117.974 30.1096 117.797 30.4974C113.641 29.4044 110.785 26.769 109.273 22.732H106.577V28.3908C108.107 28.1087 109.806 27.7826 111.444 27.4565L111.497 28.5935C108.659 29.2017 105.625 29.8275 103.756 30.1977C103.738 30.3564 103.632 30.4621 103.525 30.5062L102.991 29.0254C103.667 28.902 104.45 28.7786 105.349 28.62V22.7408H102.137V21.4804H105.349V12.437H116.551V13.6092H106.577V15.4514H115.999V16.5885H106.577V18.4307H115.999V19.5677H106.577V21.4716H118.277V22.732H110.483Z" stroke="#203A82" stroke-width="0.5"/>
<path d="M136.366 19.2415L137.024 19.3209C136.793 20.3521 135.885 23.0493 135.262 24.2921C134.497 24.0894 134.39 24.0101 134.284 23.9484C134.675 23.0934 135.138 21.7977 135.494 20.5637H133.136V28.7169C133.136 30.3563 132.513 30.4004 129.621 30.4004C129.568 30.0126 129.39 29.4485 129.212 29.043C129.924 29.0871 130.564 29.1047 131.009 29.1047C131.828 29.1047 131.935 29.1047 131.935 28.6816V20.5725H128.722V21.022H125.333V23.2961H128.74V24.5565H125.333V27.5181L129.114 26.91L129.15 28.0646C126.098 28.6552 122.868 29.2193 120.893 29.5895C120.857 29.7482 120.75 29.8363 120.626 29.8715L120.252 28.2938C121.302 28.1528 122.681 27.9324 124.176 27.7032V24.5565H120.893V23.2961H124.176V21.022H120.857V12.6485H128.722V19.2768H133.856C132.878 18.2015 131.303 16.8617 129.897 16.0067L130.68 15.1517C131.338 15.5395 132.032 16.0243 132.7 16.5267C133.447 15.8128 134.23 14.8432 134.826 13.9089H129.221V12.6749H135.734L135.965 12.5956L136.873 13.2478C136.819 13.3272 136.713 13.3889 136.624 13.4329C135.894 14.6493 134.675 16.1742 133.518 17.2231C134.123 17.7519 134.639 18.2808 135.013 18.7215L134.568 19.268H136.099L136.348 19.2504L136.366 19.2415ZM121.898 13.7855V16.2623H124.238V13.7855H121.898ZM121.898 17.3553V19.8674H124.238V17.3553H121.898ZM127.664 16.2623V13.7855H125.288V16.2623H127.664ZM127.664 19.8762V17.3641H125.288V19.8762H127.664Z" stroke="white" stroke-width="4" stroke-linecap="round" stroke-linejoin="round"/>
<path d="M136.366 19.2415L137.024 19.3209C136.793 20.3521 135.885 23.0493 135.262 24.2921C134.497 24.0894 134.39 24.0101 134.284 23.9484C134.675 23.0934 135.138 21.7977 135.494 20.5637H133.136V28.7169C133.136 30.3563 132.513 30.4004 129.621 30.4004C129.568 30.0126 129.39 29.4485 129.212 29.043C129.924 29.0871 130.564 29.1047 131.009 29.1047C131.828 29.1047 131.935 29.1047 131.935 28.6816V20.5725H128.722V21.022H125.333V23.2961H128.74V24.5565H125.333V27.5181L129.114 26.91L129.15 28.0646C126.098 28.6552 122.868 29.2193 120.893 29.5895C120.857 29.7481 120.75 29.8363 120.626 29.8715L120.252 28.2938C121.302 28.1528 122.681 27.9324 124.176 27.7032V24.5565H120.893V23.2961H124.176V21.022H120.857V12.6485H128.722V19.2768H133.856C132.878 18.2015 131.303 16.8617 129.897 16.0067L130.68 15.1517C131.338 15.5395 132.032 16.0243 132.7 16.5267C133.447 15.8128 134.23 14.8432 134.826 13.9089H129.221V12.6749H135.734L135.965 12.5956L136.873 13.2478C136.819 13.3272 136.713 13.3889 136.624 13.4329C135.894 14.6493 134.675 16.1742 133.518 17.2231C134.123 17.7519 134.639 18.2808 135.013 18.7215L134.568 19.268H136.099L136.348 19.2504L136.366 19.2415ZM121.898 13.7855V16.2623H124.238V13.7855H121.898ZM121.898 17.3553V19.8674H124.238V17.3553H121.898ZM127.664 16.2623V13.7855H125.288V16.2623H127.664ZM127.664 19.8762V17.3641H125.288V19.8762H127.664Z" fill="#203A82"/>
<path d="M136.366 19.2415L137.024 19.3209C136.793 20.3521 135.885 23.0493 135.262 24.2921C134.497 24.0894 134.39 24.0101 134.284 23.9484C134.675 23.0934 135.138 21.7977 135.494 20.5637H133.136V28.7169C133.136 30.3563 132.513 30.4004 129.621 30.4004C129.568 30.0126 129.39 29.4485 129.212 29.043C129.924 29.0871 130.564 29.1047 131.009 29.1047C131.828 29.1047 131.935 29.1047 131.935 28.6816V20.5725H128.722V21.022H125.333V23.2961H128.74V24.5565H125.333V27.5181L129.114 26.91L129.15 28.0646C126.098 28.6552 122.868 29.2193 120.893 29.5895C120.857 29.7482 120.75 29.8363 120.626 29.8715L120.252 28.2938C121.302 28.1528 122.681 27.9324 124.176 27.7032V24.5565H120.893V23.2961H124.176V21.022H120.857V12.6485H128.722V19.2768H133.856C132.878 18.2015 131.303 16.8617 129.897 16.0067L130.68 15.1517C131.338 15.5395 132.032 16.0243 132.7 16.5267C133.447 15.8128 134.23 14.8432 134.826 13.9089H129.221V12.6749H135.734L135.965 12.5956L136.873 13.2478C136.819 13.3272 136.713 13.3889 136.624 13.4329C135.894 14.6493 134.675 16.1742 133.518 17.2231C134.123 17.7519 134.639 18.2808 135.013 18.7215L134.568 19.268H136.099L136.348 19.2504L136.366 19.2415ZM121.898 13.7855V16.2623H124.238V13.7855H121.898ZM121.898 17.3553V19.8674H124.238V17.3553H121.898ZM127.664 16.2623V13.7855H125.288V16.2623H127.664ZM127.664 19.8762V17.3641H125.288V19.8762H127.664Z" stroke="#203A82" stroke-width="0.5"/>
<path d="M147.549 27.4565H154.987V28.8315H138.918V27.4565H146.285V15.3104H139.79V13.953H154.168V15.3104H147.549V27.4565Z" stroke="white" stroke-width="4" stroke-linecap="round" stroke-linejoin="round"/>
<path d="M147.549 27.4565H154.987V28.8315H138.918V27.4565H146.285V15.3104H139.79V13.953H154.168V15.3104H147.549V27.4565Z" fill="#203A82"/>
<path d="M147.549 27.4565H154.987V28.8315H138.918V27.4565H146.285V15.3104H139.79V13.953H154.168V15.3104H147.549V27.4565Z" stroke="#203A82" stroke-width="0.5"/>
<path d="M173.228 25.4909H167.035C168.69 27.051 171.297 28.3467 173.655 28.9373C173.388 29.2193 173.032 29.7658 172.854 30.136C170.371 29.3427 167.622 27.7209 165.878 25.7994V30.4445H164.686V25.9051C162.942 27.7473 160.193 29.2898 157.763 30.0831C157.603 29.7393 157.247 29.2105 156.98 28.9284C159.303 28.3202 161.865 27.0246 163.529 25.4997H157.443V24.3274H164.686V22.6879H159.151V21.595H164.686V19.9731H158.244V18.8361H162.31C162.132 18.2103 161.759 17.3377 161.385 16.6854L162.079 16.5268H157.514V15.328H160.513C160.246 14.473 159.605 13.195 159.018 12.243L160.032 11.8376C160.673 12.7719 161.349 14.0676 161.616 14.9226L160.673 15.328H163.013V11.5996L164.526 11.7054C164.508 11.9081 164.366 12.005 164.134 12.0491V15.3368H166.456V11.6084L168.005 11.7142C167.987 11.9169 167.827 12.0138 167.595 12.0579V15.3456H169.846C169.615 15.2399 169.348 15.1253 169.188 15.0636C169.704 14.191 170.327 12.8336 170.647 11.8993L172.053 12.4457C172.017 12.5691 171.875 12.6308 171.679 12.6308C171.306 13.4241 170.736 14.5347 170.238 15.3456H173.165V16.5444H169.135L169.651 16.7295C169.597 16.8705 169.455 16.9322 169.277 16.9146C169.028 17.4611 168.636 18.2544 168.28 18.8625H172.507V19.9996H165.887V21.6214H171.635V22.7144H165.887V24.3538H173.236V25.5261L173.228 25.4909ZM167.106 18.6951C167.426 18.1045 167.836 17.2143 168.102 16.5003H162.55C162.96 17.1702 163.351 18.0604 163.529 18.6686L162.977 18.8097H167.382L167.097 18.6863L167.106 18.6951Z" stroke="white" stroke-width="4" stroke-linecap="round" stroke-linejoin="round"/>
<path d="M173.228 25.4909H167.035C168.69 27.051 171.297 28.3467 173.655 28.9373C173.388 29.2193 173.032 29.7658 172.854 30.136C170.371 29.3427 167.622 27.7209 165.878 25.7994V30.4445H164.686V25.9051C162.942 27.7473 160.193 29.2898 157.763 30.0831C157.603 29.7393 157.247 29.2105 156.98 28.9284C159.303 28.3202 161.865 27.0246 163.529 25.4997H157.443V24.3274H164.686V22.6879H159.151V21.595H164.686V19.9731H158.244V18.8361H162.31C162.132 18.2103 161.759 17.3377 161.385 16.6854L162.079 16.5268H157.514V15.328H160.513C160.246 14.473 159.605 13.195 159.018 12.243L160.032 11.8376C160.673 12.7719 161.349 14.0676 161.616 14.9226L160.673 15.328H163.013V11.5996L164.526 11.7054C164.508 11.9081 164.366 12.005 164.134 12.0491V15.3368H166.456V11.6084L168.005 11.7142C167.987 11.9169 167.827 12.0138 167.595 12.0579V15.3456H169.846C169.615 15.2399 169.348 15.1253 169.188 15.0636C169.704 14.191 170.327 12.8336 170.647 11.8993L172.053 12.4457C172.017 12.5691 171.875 12.6308 171.679 12.6308C171.306 13.4241 170.736 14.5347 170.238 15.3456H173.165V16.5444H169.135L169.651 16.7295C169.597 16.8705 169.455 16.9322 169.277 16.9146C169.028 17.4611 168.636 18.2544 168.28 18.8625H172.507V19.9996H165.887V21.6214H171.635V22.7144H165.887V24.3538H173.236V25.5261L173.228 25.4909ZM167.106 18.6951C167.426 18.1045 167.836 17.2143 168.102 16.5003H162.55C162.96 17.1702 163.351 18.0604 163.529 18.6686L162.977 18.8097H167.382L167.097 18.6863L167.106 18.6951Z" fill="#203A82"/>
<path d="M173.228 25.4909H167.035C168.69 27.051 171.297 28.3467 173.655 28.9373C173.388 29.2193 173.032 29.7658 172.854 30.136C170.371 29.3427 167.622 27.7209 165.878 25.7994V30.4445H164.686V25.9051C162.942 27.7473 160.193 29.2898 157.763 30.0831C157.603 29.7393 157.247 29.2105 156.98 28.9284C159.303 28.3202 161.865 27.0246 163.529 25.4997H157.443V24.3274H164.686V22.6879H159.151V21.595H164.686V19.9731H158.244V18.8361H162.31C162.132 18.2103 161.759 17.3377 161.385 16.6854L162.079 16.5268H157.514V15.328H160.513C160.246 14.473 159.605 13.195 159.018 12.243L160.032 11.8376C160.673 12.7719 161.349 14.0676 161.616 14.9226L160.673 15.328H163.013V11.5996L164.526 11.7054C164.508 11.9081 164.366 12.005 164.134 12.0491V15.3368H166.456V11.6084L168.005 11.7142C167.987 11.9169 167.827 12.0138 167.595 12.0579V15.3456H169.846C169.615 15.2399 169.348 15.1253 169.188 15.0636C169.704 14.191 170.327 12.8336 170.647 11.8993L172.053 12.4457C172.017 12.5691 171.875 12.6308 171.679 12.6308C171.306 13.4241 170.736 14.5347 170.238 15.3456H173.165V16.5444H169.135L169.651 16.7295C169.597 16.8705 169.455 16.9322 169.277 16.9146C169.028 17.4611 168.636 18.2544 168.28 18.8625H172.507V19.9996H165.887V21.6214H171.635V22.7144H165.887V24.3538H173.236V25.5261L173.228 25.4909ZM167.106 18.6951C167.426 18.1045 167.836 17.2143 168.102 16.5003H162.55C162.96 17.1702 163.351 18.0604 163.529 18.6686L162.977 18.8097H167.382L167.097 18.6863L167.106 18.6951Z" stroke="#203A82" stroke-width="0.5"/>
<path d="M184.198 13.5828H191.565V14.7992H175.799V13.5828H182.988V11.5732L184.554 11.6966C184.536 11.8376 184.447 11.9434 184.198 11.9786V13.5828ZM190.809 21.5773V28.7345C190.809 29.5278 190.649 29.9509 190.097 30.1713C189.546 30.3916 188.567 30.3916 187.01 30.3916C186.956 30.0038 186.778 29.4749 186.618 29.0959C187.348 29.1135 188.006 29.14 188.487 29.14C189.501 29.14 189.608 29.14 189.608 28.7169V22.7761H177.819V30.4445H176.644V21.5773H190.809ZM178.842 16.0155H188.549V20.2111H178.842V16.0155ZM187.33 19.1799V17.0468H179.999V19.1799H187.33ZM187.134 28.4966H181.315V29.5719H180.23V24.1776H187.134V28.4966ZM186.049 25.2088H181.324V27.4565H186.049V25.2088Z" stroke="white" stroke-width="4" stroke-linecap="round" stroke-linejoin="round"/>
<path d="M184.198 13.5828H191.565V14.7992H175.799V13.5828H182.988V11.5732L184.554 11.6966C184.536 11.8376 184.447 11.9434 184.198 11.9786V13.5828ZM190.809 21.5773V28.7345C190.809 29.5278 190.649 29.9509 190.097 30.1713C189.546 30.3916 188.567 30.3916 187.01 30.3916C186.956 30.0038 186.778 29.4749 186.618 29.0959C187.348 29.1135 188.006 29.14 188.487 29.14C189.501 29.14 189.608 29.14 189.608 28.7169V22.7761H177.819V30.4445H176.644V21.5773H190.809ZM178.842 16.0155H188.549V20.2111H178.842V16.0155ZM187.33 19.1799V17.0468H179.999V19.1799H187.33ZM187.134 28.4966H181.315V29.5719H180.23V24.1776H187.134V28.4966ZM186.049 25.2088H181.324V27.4565H186.049V25.2088Z" fill="#203A82"/>
<path d="M184.198 13.5828H191.565V14.7992H175.799V13.5828H182.988V11.5732L184.554 11.6966C184.536 11.8376 184.447 11.9434 184.198 11.9786V13.5828ZM190.809 21.5773V28.7345C190.809 29.5278 190.649 29.9509 190.097 30.1713C189.546 30.3916 188.567 30.3916 187.01 30.3916C186.956 30.0038 186.778 29.4749 186.618 29.0959C187.348 29.1135 188.006 29.14 188.487 29.14C189.501 29.14 189.608 29.14 189.608 28.7169V22.7761H177.819V30.4445H176.644V21.5773H190.809ZM178.842 16.0155H188.549V20.2111H178.842V16.0155ZM187.33 19.1799V17.0468H179.999V19.1799H187.33ZM187.134 28.4966H181.315V29.5719H180.23V24.1776H187.134V28.4966ZM186.049 25.2088H181.324V27.4565H186.049V25.2088Z" stroke="#203A82" stroke-width="0.5"/>
<path d="M197.91 16.9498C197.803 16.3417 197.483 15.3721 197.145 14.5788H196.362C195.846 15.5924 195.259 16.5268 194.671 17.2143C194.44 16.9939 194.031 16.6678 193.746 16.4827C194.778 15.3456 195.801 13.3977 196.389 11.4938L197.777 12.005C197.723 12.1461 197.581 12.2078 197.403 12.1901C197.261 12.5956 197.101 13.001 196.923 13.4065H201.807V14.5788H198.346C198.631 15.2663 198.88 16.0155 199.005 16.5268L197.919 16.9498H197.91ZM210.287 13.4065V14.5788H206.025C206.47 15.2663 206.879 15.9979 207.075 16.5444L206.043 17.0732C205.829 16.3857 205.295 15.3721 204.726 14.5788H203.356C202.982 15.2046 202.573 15.7775 202.145 16.28L203 16.3417C202.982 16.4827 202.893 16.562 202.644 16.6061V17.8048H208.498V18.9771H202.644V20.9427H210.26V22.1414H206.603C206.568 22.2472 206.479 22.3001 206.283 22.3618V24.0277H209.548V25.2264H206.283V28.7962C206.283 30.418 205.518 30.4357 202.501 30.4357C202.448 30.0478 202.234 29.519 202.074 29.14C202.804 29.1576 203.462 29.184 203.934 29.184C204.93 29.184 205.055 29.184 205.055 28.761V25.2353H194.743V24.0365H205.055V22.1503H193.888V20.9515H201.416V18.9859H195.704V17.8136H201.416V16.9851C201.185 16.7647 200.775 16.4386 200.526 16.2535C201.701 15.1958 202.848 13.3977 203.453 11.5114L204.877 11.9962C204.824 12.1549 204.663 12.1989 204.503 12.1813C204.361 12.5868 204.183 13.0099 203.987 13.4153H210.305L210.287 13.4065ZM200.295 29.4044C199.69 28.4701 198.328 27.1744 197.118 26.3458L197.955 25.5349C199.129 26.3282 200.526 27.5622 201.167 28.5142L200.295 29.4044Z" stroke="white" stroke-width="4" stroke-linecap="round" stroke-linejoin="round"/>
<path d="M197.91 16.9498C197.803 16.3417 197.483 15.3721 197.145 14.5788H196.362C195.846 15.5924 195.259 16.5268 194.671 17.2143C194.44 16.9939 194.031 16.6678 193.746 16.4827C194.778 15.3456 195.801 13.3977 196.389 11.4938L197.777 12.005C197.723 12.1461 197.581 12.2078 197.403 12.1901C197.261 12.5956 197.101 13.001 196.923 13.4065H201.807V14.5788H198.346C198.631 15.2663 198.88 16.0155 199.005 16.5268L197.919 16.9498H197.91ZM210.287 13.4065V14.5788H206.025C206.47 15.2663 206.879 15.9979 207.075 16.5444L206.043 17.0732C205.829 16.3857 205.295 15.3721 204.726 14.5788H203.356C202.982 15.2046 202.573 15.7775 202.145 16.28L203 16.3417C202.982 16.4827 202.893 16.562 202.644 16.6061V17.8048H208.498V18.9771H202.644V20.9427H210.26V22.1414H206.603C206.568 22.2472 206.479 22.3001 206.283 22.3618V24.0277H209.548V25.2264H206.283V28.7962C206.283 30.418 205.518 30.4357 202.501 30.4357C202.448 30.0478 202.234 29.519 202.074 29.14C202.804 29.1576 203.462 29.184 203.934 29.184C204.93 29.184 205.055 29.184 205.055 28.761V25.2353H194.743V24.0365H205.055V22.1503H193.888V20.9515H201.416V18.9859H195.704V17.8136H201.416V16.9851C201.185 16.7647 200.775 16.4386 200.526 16.2535C201.701 15.1958 202.848 13.3977 203.453 11.5114L204.877 11.9962C204.824 12.1549 204.663 12.1989 204.503 12.1813C204.361 12.5868 204.183 13.0099 203.987 13.4153H210.305L210.287 13.4065ZM200.295 29.4044C199.69 28.4701 198.328 27.1744 197.118 26.3458L197.955 25.5349C199.129 26.3282 200.526 27.5622 201.167 28.5142L200.295 29.4044Z" fill="#203A82"/>
<path d="M197.91 16.9498C197.803 16.3417 197.483 15.3721 197.145 14.5788H196.362C195.846 15.5924 195.259 16.5268 194.671 17.2143C194.44 16.9939 194.031 16.6678 193.746 16.4827C194.778 15.3456 195.801 13.3977 196.389 11.4938L197.777 12.005C197.723 12.1461 197.581 12.2078 197.403 12.1901C197.261 12.5956 197.101 13.001 196.923 13.4065H201.807V14.5788H198.346C198.631 15.2663 198.88 16.0155 199.005 16.5268L197.919 16.9498H197.91ZM210.287 13.4065V14.5788H206.025C206.47 15.2663 206.879 15.9979 207.075 16.5444L206.043 17.0732C205.829 16.3857 205.295 15.3721 204.726 14.5788H203.356C202.982 15.2046 202.573 15.7775 202.145 16.28L203 16.3417C202.982 16.4827 202.893 16.562 202.644 16.6061V17.8048H208.498V18.9771H202.644V20.9427H210.26V22.1414H206.603C206.568 22.2472 206.479 22.3001 206.283 22.3618V24.0277H209.548V25.2264H206.283V28.7962C206.283 30.418 205.518 30.4357 202.501 30.4357C202.448 30.0478 202.234 29.519 202.074 29.14C202.804 29.1576 203.462 29.184 203.934 29.184C204.93 29.184 205.055 29.184 205.055 28.761V25.2353H194.743V24.0365H205.055V22.1503H193.888V20.9515H201.416V18.9859H195.704V17.8136H201.416V16.9851C201.185 16.7647 200.775 16.4386 200.526 16.2535C201.701 15.1958 202.848 13.3977 203.453 11.5114L204.877 11.9962C204.824 12.1549 204.663 12.1989 204.503 12.1813C204.361 12.5868 204.183 13.0099 203.987 13.4153H210.305L210.287 13.4065ZM200.295 29.4044C199.69 28.4701 198.328 27.1744 197.118 26.3458L197.955 25.5349C199.129 26.3282 200.526 27.5622 201.167 28.5142L200.295 29.4044Z" stroke="#203A82" stroke-width="0.5"/>
<path d="M228.429 23.5605V24.8386H221.026V28.7698C221.026 30.4709 220.172 30.4974 216.871 30.4974C216.782 30.1095 216.551 29.5454 216.355 29.1576C217.262 29.2017 218.063 29.2193 218.642 29.2193C219.674 29.2193 219.798 29.2193 219.798 28.7698V24.8386H212.484V23.5605H219.798V21.7977L220.635 21.8594C221.542 21.3305 222.485 20.6254 223.224 19.9291H215.465V18.7127H224.496L224.71 18.6334L225.635 19.3033C225.582 19.409 225.475 19.4619 225.368 19.4884C224.318 20.6254 222.619 21.9387 221.035 22.8378V23.5694H228.438L228.429 23.5605ZM214.068 16.28V19.5501H212.929V15.046H215.714C215.376 14.2527 214.718 13.1773 214.13 12.3929L215.127 11.8464C215.839 12.7366 216.604 13.9354 216.924 14.7463L216.408 15.0548H220.19C219.923 14.1381 219.336 12.8865 218.784 11.9522L219.816 11.5026C220.457 12.5163 221.097 13.8737 221.329 14.7463L220.706 15.0548H223.829C224.523 14.1205 225.395 12.7014 225.884 11.7318C227.005 12.199 227.148 12.2959 227.29 12.4017C227.237 12.5251 227.094 12.5868 226.916 12.5603C226.471 13.2919 225.831 14.2439 225.208 15.0548H228.118V19.5589H226.943V16.2888H214.077L214.068 16.28Z" stroke="white" stroke-width="4" stroke-linecap="round" stroke-linejoin="round"/>
<path d="M228.429 23.5605V24.8386H221.026V28.7698C221.026 30.4709 220.172 30.4974 216.871 30.4974C216.782 30.1095 216.551 29.5454 216.355 29.1576C217.262 29.2017 218.063 29.2193 218.642 29.2193C219.674 29.2193 219.798 29.2193 219.798 28.7698V24.8386H212.484V23.5605H219.798V21.7977L220.635 21.8594C221.542 21.3305 222.485 20.6254 223.224 19.9291H215.465V18.7127H224.496L224.71 18.6334L225.635 19.3033C225.582 19.409 225.475 19.4619 225.368 19.4884C224.318 20.6254 222.619 21.9387 221.035 22.8378V23.5694H228.438L228.429 23.5605ZM214.068 16.28V19.5501H212.929V15.046H215.714C215.376 14.2527 214.718 13.1773 214.13 12.3929L215.127 11.8464C215.839 12.7366 216.604 13.9354 216.924 14.7463L216.408 15.0548H220.19C219.923 14.1381 219.336 12.8865 218.784 11.9522L219.816 11.5026C220.457 12.5163 221.097 13.8737 221.329 14.7463L220.706 15.0548H223.829C224.523 14.1205 225.395 12.7014 225.884 11.7318C227.005 12.199 227.148 12.2959 227.29 12.4017C227.237 12.5251 227.094 12.5868 226.916 12.5603C226.471 13.2919 225.831 14.2439 225.208 15.0548H228.118V19.5589H226.943V16.2888H214.077L214.068 16.28Z" fill="#203A82"/>
<path d="M228.429 23.5605V24.8386H221.026V28.7698C221.026 30.4709 220.172 30.4974 216.871 30.4974C216.782 30.1095 216.551 29.5454 216.355 29.1576C217.262 29.2017 218.063 29.2193 218.642 29.2193C219.674 29.2193 219.798 29.2193 219.798 28.7698V24.8386H212.484V23.5605H219.798V21.7977L220.635 21.8594C221.542 21.3305 222.485 20.6254 223.224 19.9291H215.465V18.7127H224.496L224.71 18.6334L225.635 19.3033C225.582 19.409 225.475 19.4619 225.368 19.4884C224.318 20.6254 222.619 21.9387 221.035 22.8378V23.5694H228.438L228.429 23.5605ZM214.068 16.28V19.5501H212.929V15.046H215.714C215.376 14.2527 214.718 13.1773 214.13 12.3929L215.127 11.8464C215.839 12.7366 216.604 13.9354 216.924 14.7463L216.408 15.0548H220.19C219.923 14.1381 219.336 12.8865 218.784 11.9522L219.816 11.5026C220.457 12.5163 221.097 13.8737 221.329 14.7463L220.706 15.0548H223.829C224.523 14.1205 225.395 12.7014 225.884 11.7318C227.005 12.199 227.148 12.2959 227.29 12.4017C227.237 12.5251 227.094 12.5868 226.916 12.5603C226.471 13.2919 225.831 14.2439 225.208 15.0548H228.118V19.5589H226.943V16.2888H214.077L214.068 16.28Z" stroke="#203A82" stroke-width="0.5"/>
<path d="M234.559 18.9771C235.11 19.744 236.614 22.1855 236.952 22.7673L236.258 23.8426C235.956 23.1287 235.173 21.6919 234.568 20.599V30.3916H233.447V20.3522C232.806 22.7496 231.934 25.0766 231.018 26.4957C230.893 26.1343 230.59 25.6055 230.377 25.297C231.534 23.5341 232.735 20.2023 233.304 17.3024H230.715V16.0244H233.447V11.5643L234.924 11.6877C234.906 11.8111 234.799 11.9081 234.568 11.9522V16.0244H236.837V17.3024H234.568V18.9683L234.559 18.9771ZM239.853 20.361C240.333 21.9035 241.027 23.3666 241.873 24.6447C242.709 23.3226 243.314 21.8418 243.688 20.264L245.165 20.6518C245.111 20.7929 244.987 20.8986 244.773 20.8986C244.311 22.5998 243.599 24.2481 242.611 25.6848C243.875 27.289 245.432 28.5671 247.211 29.2986C246.944 29.5807 246.553 30.1096 246.375 30.4974C244.631 29.6688 243.109 28.3643 241.846 26.7425C240.565 28.3026 238.936 29.5983 236.908 30.515C236.783 30.2065 236.463 29.7041 236.267 29.4397C238.287 28.5671 239.888 27.289 241.116 25.7289C240.155 24.2481 239.364 22.5645 238.794 20.7224L239.844 20.3786L239.853 20.361ZM240.752 17.2407C240.698 17.3377 240.591 17.3994 240.413 17.3994C239.773 18.8185 238.652 20.5813 237.433 21.7977C237.237 21.5509 236.863 21.1895 236.596 20.9692C237.753 19.8497 238.847 18.131 239.435 16.6325L240.752 17.2407ZM246.953 14.6581V15.9186H236.961V14.6581H241.294V11.5731L242.825 11.6965C242.807 11.8376 242.718 11.9433 242.469 11.9786V14.6581H246.944H246.953ZM246.188 21.6567C245.654 20.4227 244.364 18.5364 243.19 17.179L244.133 16.5708C245.307 17.9106 246.633 19.7352 247.185 20.9692L246.188 21.6567Z" stroke="white" stroke-width="4" stroke-linecap="round" stroke-linejoin="round"/>
<path d="M234.559 18.9771C235.11 19.744 236.614 22.1855 236.952 22.7673L236.258 23.8426C235.956 23.1287 235.173 21.6919 234.568 20.599V30.3916H233.447V20.3522C232.806 22.7496 231.934 25.0766 231.018 26.4957C230.893 26.1343 230.59 25.6055 230.377 25.297C231.534 23.5341 232.735 20.2023 233.304 17.3024H230.715V16.0244H233.447V11.5643L234.924 11.6877C234.906 11.8111 234.799 11.9081 234.568 11.9522V16.0244H236.837V17.3024H234.568V18.9683L234.559 18.9771ZM239.853 20.361C240.333 21.9035 241.027 23.3666 241.873 24.6447C242.709 23.3226 243.314 21.8418 243.688 20.264L245.165 20.6518C245.111 20.7929 244.987 20.8986 244.773 20.8986C244.311 22.5998 243.599 24.2481 242.611 25.6848C243.875 27.289 245.432 28.5671 247.211 29.2986C246.944 29.5807 246.553 30.1096 246.375 30.4974C244.631 29.6688 243.109 28.3643 241.846 26.7425C240.565 28.3026 238.936 29.5983 236.908 30.515C236.783 30.2065 236.463 29.7041 236.267 29.4397C238.287 28.5671 239.888 27.289 241.116 25.7289C240.155 24.2481 239.364 22.5645 238.794 20.7224L239.844 20.3786L239.853 20.361ZM240.752 17.2407C240.698 17.3377 240.591 17.3994 240.413 17.3994C239.773 18.8185 238.652 20.5813 237.433 21.7977C237.237 21.5509 236.863 21.1895 236.596 20.9692C237.753 19.8497 238.847 18.131 239.435 16.6325L240.752 17.2407ZM246.953 14.6581V15.9186H236.961V14.6581H241.294V11.5731L242.825 11.6965C242.807 11.8376 242.718 11.9433 242.469 11.9786V14.6581H246.944H246.953ZM246.188 21.6567C245.654 20.4227 244.364 18.5364 243.19 17.179L244.133 16.5708C245.307 17.9106 246.633 19.7352 247.185 20.9692L246.188 21.6567Z" fill="#203A82"/>
<path d="M234.559 18.9771C235.11 19.744 236.614 22.1855 236.952 22.7673L236.258 23.8426C235.956 23.1287 235.173 21.6919 234.568 20.599V30.3916H233.447V20.3522C232.806 22.7496 231.934 25.0766 231.018 26.4957C230.893 26.1343 230.59 25.6055 230.377 25.297C231.534 23.5341 232.735 20.2023 233.304 17.3024H230.715V16.0244H233.447V11.5643L234.924 11.6877C234.906 11.8111 234.799 11.9081 234.568 11.9522V16.0244H236.837V17.3024H234.568V18.9683L234.559 18.9771ZM239.853 20.361C240.333 21.9035 241.027 23.3666 241.873 24.6447C242.709 23.3226 243.314 21.8418 243.688 20.264L245.165 20.6518C245.111 20.7929 244.987 20.8986 244.773 20.8986C244.311 22.5998 243.599 24.2481 242.611 25.6848C243.875 27.289 245.432 28.5671 247.211 29.2986C246.944 29.5807 246.553 30.1096 246.375 30.4974C244.631 29.6688 243.109 28.3643 241.846 26.7425C240.565 28.3026 238.936 29.5983 236.908 30.515C236.783 30.2065 236.463 29.7041 236.267 29.4397C238.287 28.5671 239.888 27.289 241.116 25.7289C240.155 24.2481 239.364 22.5645 238.794 20.7224L239.844 20.3786L239.853 20.361ZM240.752 17.2407C240.698 17.3377 240.591 17.3994 240.413 17.3994C239.773 18.8185 238.652 20.5813 237.433 21.7977C237.237 21.5509 236.863 21.1895 236.596 20.9692C237.753 19.8497 238.847 18.131 239.435 16.6325L240.752 17.2407ZM246.953 14.6581V15.9186H236.961V14.6581H241.294V11.5731L242.825 11.6965C242.807 11.8376 242.718 11.9433 242.469 11.9786V14.6581H246.944H246.953ZM246.188 21.6567C245.654 20.4227 244.364 18.5364 243.19 17.179L244.133 16.5708C245.307 17.9106 246.633 19.7352 247.185 20.9692L246.188 21.6567Z" stroke="#203A82" stroke-width="0.5"/>
</g>
<defs>
<clipPath id="clip0_2104_10230">
<rect width="249" height="42" fill="white"/>
</clipPath>
</defs>
</svg>
